<?xml version="1.0" encoding="utf-8"?>
<!-- Generator: Adobe Illustrator 24.1.0, SVG Export Plug-In . SVG Version: 6.00 Build 0)  -->
<svg version="1.1" id="Layer_1" xmlns="http://www.w3.org/2000/svg" xmlns:xlink="http://www.w3.org/1999/xlink" x="0px" y="0px"
	 viewBox="0 0 1366 768" style="enable-background:new 0 0 1366 768;" xml:space="preserve">
<style type="text/css">
	.st0{fill:#F24C36;}
</style>
<g>
	<path class="st0" d="M1352.92,348.51c1.2-31.06-10.79-59.8-31.13-81.17c-2.91-3.05-5.98-5.96-9.22-8.69
		c-48.23-36.31-134.33-47.01-174.99,6.49c47.84-45.47,124.37-29.42,169.17,10c3.29,3.34,6.35,6.87,9.16,10.57
		c14.08,18.5,22.01,41.23,21.07,65.45c-1.34,34.82-20.7,64.81-49.43,82.61c25.69,20.54,41.54,51.32,40.24,84.99
		c-1.68,43.59-31.59,79.63-72.77,93.65c-4.6,1.55-9.33,2.83-14.32,3.92c-64.86,12.56-115.09-51.63-155.75-97.1
		c43.05,53.49,93.28,131.06,164.04,113.54c4.34-0.76,8.59-1.76,12.74-2.98c45.7-13.39,79.57-53.38,81.45-102.18
		c1.39-35.98-14.94-68.84-41.45-90.75C1331.44,417.8,1351.48,385.73,1352.92,348.51z"/>
	<path class="st0" d="M759.95,535.25c-110.3,32.13-213.14,90.97-316.53,140.98c-4.06,1.74-8.11,3.39-12.14,4.95
		c-44.35,17.12-87.19,22.94-136.48,20.57c-151.62-7.31-251.31-132.5-243.88-325.51S169.75,62.13,321.37,69.44
		c25.44,1.23,51.28,4.52,76.42,10.44c4.19,0.99,8.37,2.03,12.58,3.07c86.22,19.02,146.01,88.56,220.16,142.06
		c28.7,21.4,62.19,37.45,98.06,42.8c-31.09-13.37-64.58-21.4-90.89-42.8C558.77,168.85,498.97,91.28,408.79,67.5
		c-4.22-1.37-8.48-2.66-12.75-3.86c-29.95-8.44-61.18-12.93-91.83-14.4C147.59,41.69,32.38,171.26,24.43,377.51
		C16.48,583.76,119.29,717.35,275.9,724.9c60.17,2.9,111.04-6.42,166.21-33.44c4.24-2.08,8.51-4.26,12.88-6.58
		c103.78-55.98,206.63-106.8,313.18-149.53C765.53,535.35,762.82,535.33,759.95,535.25z"/>
	<g>
		<path class="st0" d="M482.44,313.6c-0.83-1.31-2-2.79-3.51-4.44c-1.51-1.65-3.27-3.06-5.26-4.23c-2-1.17-4.17-1.75-6.51-1.75
			h-0.34c-4.38,0.83-10.87,7.46-19.47,19.91c-8.6,12.44-17.56,26.83-26.88,43.16c-9.32,16.33-17.3,30.82-23.94,43.47l-10.07,19.08
			l4.41-15.26c2.94-10.11,6.43-21.81,10.47-35.12c4.04-13.31,7.83-25.34,11.38-36.1c3.55-10.76,6.07-17.31,7.58-19.65
			c-0.98-2.13-3.06-4.31-6.23-6.55s-6.32-3.94-9.45-5.11c-3.13-1.17-5.72-1.75-7.75-1.75c-0.68,0-1.36,0.07-2.04,0.21
			c-1.13,1.31-4.45,6.86-9.96,16.65c-5.51,9.8-11.96,21.5-19.36,35.12c-9.51,17.4-18.47,33.57-26.88,48.53
			c-8.42,14.95-13.94,23.94-16.58,26.97c0.15-1.72,1.45-5.91,3.91-12.58c2.45-6.67,5.49-14.58,9.11-23.72
			c5.81-14.85,11.05-28.86,15.73-42.02c4.68-13.17,7.02-21.98,7.02-26.46c0-0.41-0.04-0.83-0.11-1.24
			c-2.04-5.57-5.49-9.93-10.36-13.1c-4.87-3.16-8.96-4.74-12.28-4.74c-1.28,0-2.49,0.17-3.62,0.51c-2.26,0.9-8.75,2.18-19.47,3.87
			c-10.72,1.69-22.79,3.37-36.22,5.05c-13.43,1.68-24.49,2.94-33.17,3.76c-8.68,0.83-14.6,1.24-17.77,1.24
			c-1.74,0-2.94-0.1-3.62-0.31l0.11,2.79c0.07,1.93,0.57,4.2,1.47,6.81c0.91,2.61,2.47,5.16,4.7,7.63c2.22,2.48,5.05,4.25,8.49,5.31
			c3.43,1.07,6.92,1.6,10.47,1.6c2.26,0,4.72-0.17,7.36-0.52c17.66-2.34,33.26-4.52,46.81-6.55c13.54-2.03,22.36-3.49,26.43-4.38
			c0.45,0,0.68,0.48,0.68,1.44c0,1.93-1.06,5.98-3.17,12.17c-3.17,9.01-7.4,20.25-12.68,33.73c-6.64,16.98-12.55,32.95-17.72,47.9
			c-5.17,14.95-7.75,25.46-7.75,31.51c0,0.69,0.04,1.31,0.11,1.86c1.28,5.91,3.41,10.16,6.4,12.74c2.98,2.58,5.72,4.06,8.21,4.44
			c2.49,0.38,4.41,0.57,5.77,0.57c1.13,0,2.15-0.1,3.06-0.31c0.68-1.44,4.32-8.18,10.92-20.21c6.6-12.03,14.17-25.75,22.7-41.15
			c8.53-15.4,16.11-29.05,22.75-40.94l9.85-17.84l-3.51,12.99c-2.34,8.73-5.02,18.84-8.04,30.32c-3.02,11.48-5.7,21.9-8.04,31.25
			c-2.34,9.35-3.62,15.13-3.85,17.33c0.15,3.64,2.15,6.52,6,8.61s7.51,3.15,10.98,3.15c0.68,0,1.36-0.03,2.04-0.1
			c2.11-0.76,6.38-5.84,12.79-15.26c6.41-9.42,13.41-20.28,21-32.59c7.59-12.31,14.21-23.24,19.87-32.8l8.38-14.23l-6,16.6
			c-4,11.14-8.59,24.1-13.75,38.88c-5.17,14.79-9.72,28.28-13.64,40.48c-3.92,12.2-6.04,19.96-6.34,23.26
			c0,1.51,0.07,2.82,0.23,3.92c0.15,1.1,0.36,2.01,0.62,2.73c0.26,0.72,0.55,1.29,0.85,1.7c0.3,0.41,0.62,0.72,0.95,0.92
			c0,0,0.01,0.01,0.01,0.01c0.2,0.12,0.38,0.2,0.55,0.27c0.66-0.01,1.32,0.02,1.98,0.11c0.27-0.02,0.53-0.02,0.8,0.01
			c0.33-0.01,0.68,0.01,1.01,0.01c1.3-0.17,2.63-0.1,3.92,0.13c6.3-0.73,12.55-1.72,18.79-2.76c0,0,0-0.01,0-0.01
			c-0.17,0.03-0.35,0.05-0.51,0.08c1.39-0.03,1.23-1.59,1.39-2.21c1.28-10.59,5.48-33.73,14.91-70.76
			c9.43-37.02,24.15-74.37,44.15-112.05L482.44,313.6z"/>
		<path class="st0" d="M499.28,366.41c0.76-0.34,1.58-0.52,2.48-0.52c1.17,0,2.7,0.43,4.59,1.29c1.89,0.86,3.49,2.67,4.8,5.42
			c0.62,1.31,0.93,2.78,0.93,4.43c0,1.79-0.34,3.75-1.03,5.88c-0.76,1.92-1.72,4.33-2.89,7.22c-3.51,8.18-7.49,19.08-11.96,32.69
			c-4.47,13.61-7.56,28.53-9.28,44.76c-4.13,3.16-8.01,4.74-11.65,4.74c-0.76,0-2.39-0.21-4.9-0.62c-2.51-0.41-4.87-1.92-7.07-4.54
			c-1.03-1.44-1.55-3.54-1.55-6.29c0-0.69,0.1-2.22,0.31-4.59c0.21-2.37,0.89-5.74,2.06-10.11c1.17-4.37,2.3-8.13,3.4-11.29
			c3.44-10.11,8.08-22.02,13.92-35.74C487.28,385.43,493.23,374.52,499.28,366.41z M520.32,313.39c5.16,0.28,8.82,1.05,10.98,2.32
			c2.17,1.27,3.49,2.8,3.97,4.59c0.34,1.31,0.52,2.68,0.52,4.13l-0.1,1.44c-0.14,1.44-1.26,3.51-3.35,6.19
			c-2.1,2.68-4.49,5.41-7.17,8.2c-2.68,2.78-5.09,5.17-7.22,7.17l-3.2,2.99l-1.65-0.41c-1.1-0.27-2.36-0.7-3.76-1.29
			c-1.41-0.58-2.7-1.32-3.87-2.22c-1.17-0.89-1.82-1.92-1.96-3.09v-1.03c0-4.13,0.79-7.94,2.37-11.45c1.58-3.51,3.51-6.58,5.78-9.23
			c2.27-2.65,4.3-4.69,6.08-6.14L520.32,313.39z"/>
		<path class="st0" d="M529.63,417.04h1.24c4.26,0,7.75,0.69,10.47,2.06c2.71,1.38,4.76,3.08,6.14,5.11
			c1.37,2.03,2.2,3.87,2.48,5.52c0.14,0.76,0.21,1.38,0.21,1.86c0,0.55-0.1,0.89-0.31,1.03c-5.36,3.23-9.94,7.5-13.72,12.79
			c-3.78,5.3-5.84,9.46-6.19,12.48l-0.1,1.44c0,2.27,0.43,4.35,1.29,6.24c0.86,1.89,2.42,2.84,4.69,2.84c4.26,0,8.11-1.1,11.55-3.3
			c3.44-2.2,6.41-5.02,8.92-8.46c2.51-3.44,4.42-7.12,5.72-11.03c1.31-3.92,1.96-7.6,1.96-11.04c0-13.96-1.51-25.7-4.54-35.22
			c-3.03-9.52-7.91-17.58-14.64-24.18c-3.03-2.48-4.54-5.22-4.54-8.25c0-0.34,0.03-0.72,0.1-1.14c0.48-3.5,2.37-5.81,5.67-6.91
			c2.54,0.62,5.29,0.93,8.25,0.93c3.23,0,6.7-0.38,10.42-1.14c7.15-1.51,12.69-2.92,16.6-4.23c0.76-0.27,1.41-0.48,1.96-0.62
			c0.76-0.2,1.51-0.31,2.27-0.31c0.48,0,0.93,0.04,1.34,0.1c1.17,0.2,2.23,0.55,3.2,1.03c0.96,0.41,1.72,0.83,2.27,1.24l0.83,0.62
			l0.1-0.83c0.07-0.48,0.17-1.1,0.31-1.86c0.14-0.68,0.38-1.41,0.72-2.16c0.34-0.69,0.76-1.24,1.24-1.65
			c0.41-0.34,0.93-0.51,1.55-0.51h0.52c5.43,0.41,8.87,2.75,10.31,7.01c0.62,1.72,0.93,3.5,0.93,5.36c0,2.68-0.65,5.5-1.96,8.45
			c-2.13,4.54-3.78,8.56-4.95,12.07c-1.17,3.51-2.17,7.36-2.99,11.55c-4.33-0.96-7.77-3.06-10.31-6.29
			c-1.58-1.99-2.37-4.85-2.37-8.56c0-2.2,0.27-4.67,0.83-7.43c-1.17,1.58-3.3,2.96-6.39,4.13c-3.09,1.1-6.22,2.03-9.39,2.78
			c-3.23,0.69-5.64,1.14-7.22,1.34c0.34,0.55,0.76,1.13,1.24,1.75c1.79,2.41,3.9,5.55,6.34,9.44c2.44,3.89,4.86,8.39,7.27,13.51
			c2.41,5.12,4.43,10.81,6.08,17.07c1.65,6.26,2.48,12.93,2.48,20.01c0,4.95-0.95,9.99-2.84,15.11c-1.89,5.12-4.68,9.8-8.35,14.03
			c-3.68,4.23-8.27,7.65-13.77,10.26c-5.5,2.61-11.9,3.92-19.18,3.92c-6.19,0-12.79-3.47-19.8-10.42
			c-3.51-3.44-6.26-7.15-8.25-11.14c-1.99-3.99-2.99-8.21-2.99-12.69c0-6.19,0.88-11.43,2.63-15.73c1.75-4.3,3.75-7.77,5.98-10.42
			c2.23-2.65,4.24-4.59,6.03-5.83L529.63,417.04z"/>
		<path class="st0" d="M677.6,491.19c-0.76,0.07-1.51,0.1-2.27,0.1c-4.47,0-8.78-1.39-12.94-4.18c-4.16-2.79-6.27-8.06-6.34-15.83
			c7.08-18.91,15.37-39.43,24.85-61.57c6.05-14.23,11.43-27.24,16.14-39.04c4.71-11.79,7.79-20.81,9.23-27.07
			c1.24-1.03,2.54-1.55,3.92-1.55c0.27,0,0.94,0.1,2.01,0.31c1.06,0.21,2.46,0.9,4.18,2.06c1.72,1.17,3.32,2.48,4.8,3.92
			c1.48,1.44,2.66,2.68,3.56,3.71l1.24,1.65l-0.1,0.41c-0.07,0.28-0.21,0.72-0.41,1.34c-0.21,0.62-0.52,1.53-0.93,2.73
			c-0.41,1.2-0.96,2.72-1.65,4.54c-0.69,1.82-1.55,4.04-2.58,6.65c-1.03,2.61-2.27,5.71-3.71,9.28c-1.44,3.58-3.13,7.67-5.05,12.27
			c24.34-1.37,43.26-4.5,56.77-9.38c13.51-4.88,23.17-10.36,28.98-16.45c5.81-6.08,9.23-11.57,10.26-16.45
			c0.76-3.23,1.13-5.71,1.13-7.43c0-0.83-0.1-1.48-0.31-1.96c-0.34-1.79-2.11-4.42-5.31-7.89c-3.2-3.47-8.75-6.65-16.66-9.54
			c-7.29-2.61-17.4-3.92-30.32-3.92h-2.89c-17.67,1.1-32.21,4.92-43.63,11.45c-11.41,6.53-20.3,14.01-26.66,22.43
			c-6.36,8.42-10.74,16.04-13.15,22.84c-2.2,5.98-3.3,10.04-3.3,12.17c0,0.28,0.03,0.52,0.1,0.72c0.07,0.41,0.1,0.76,0.1,1.03
			c0,1.65-0.69,2.48-2.06,2.48c-0.14,0-0.77-0.05-1.91-0.16c-1.14-0.1-3.13-1.19-5.98-3.25c-2.85-2.06-5.41-4.57-7.68-7.53
			c-2.27-2.96-3.51-5.88-3.71-8.77c0.41-16.3,7.18-29.79,20.32-40.48c13.13-10.69,27.57-18.68,43.32-23.98
			c15.74-5.29,27.71-8.01,35.89-8.15c27.78,0,47.68,5.17,59.71,15.52c12.03,10.35,18.05,21.61,18.05,33.77
			c0.07,0.76,0.1,1.51,0.1,2.27c0,7.22-2.72,15.07-8.15,23.57c-5.43,8.49-16.91,16.76-34.45,24.8
			c-17.53,8.04-43.76,14.64-78.69,19.8c-4.95,10.31-9.73,22.29-14.34,35.94C682.49,468.08,679.32,480.33,677.6,491.19z"/>
		<path class="st0" d="M871.41,354.96c8.32,3.44,13.03,9.94,14.13,19.49c0.27,2.48,0.41,5.02,0.41,7.63
			c0,7.29-1.27,15.64-3.82,25.06c-2.54,9.42-5.64,17.95-9.28,25.58c-3.78,8.6-10.04,17.63-18.77,27.12
			c-6.95,7.63-14.54,11.45-22.79,11.45c-1.99,0-4.06-0.24-6.19-0.72c-8.66-2.68-14.2-10.48-16.6-23.41
			c-0.48-2.75-0.72-5.71-0.72-8.87c0-11.76,3.51-26.4,10.52-43.93c8.18-18.56,17.08-30.56,26.71-35.99
			c6.05-3.44,11.79-5.15,17.22-5.15C865.4,353.2,868.46,353.79,871.41,354.96z M829.23,456.75c5.43-2.13,10.84-7.91,16.24-17.33
			c5.4-9.42,10.11-19.92,14.13-31.51c4.02-11.58,6.72-21.78,8.1-30.58c0.48-2.95,0.72-5.43,0.72-7.43c0-3.78-0.89-5.67-2.68-5.67
			c-2.61,0-7.34,6.05-14.18,18.15c-6.84,12.1-12.74,25.37-17.69,39.81c-3.64,10.38-5.47,19.29-5.47,26.71
			C828.41,451.73,828.68,454.34,829.23,456.75z"/>
		<path class="st0" d="M933.01,313.6c1.44-1.1,3.02-1.65,4.74-1.65c1.17,0,2.9,0.4,5.21,1.18c2.3,0.79,4.76,2.39,7.37,4.8
			c2.61,2.41,4.06,4.51,4.33,6.29v0.31c0,2.27-1.27,7.01-3.82,14.23c-2.54,7.22-5.88,16.09-10,26.61
			c-5.02,13.06-10.13,26.85-15.31,41.36c-5.19,14.51-9.27,27.88-12.22,40.12c-1.72,7.77-2.58,13.61-2.58,17.53
			c0,0.14,0.02,1.22,0.05,3.25c0.03,2.03,0.46,3.9,1.29,5.62c-1.86,0.14-3.61,0.2-5.26,0.2c-6.67,0-11.9-1.2-15.68-3.61
			c-2.82-1.79-4.23-5.26-4.23-10.42c0-3.57,0.69-7.94,2.06-13.1c5.98-19.94,13.65-41.29,23-64.05
			c6.94-17.33,12.55-32.42,16.81-45.27c2.13-7.36,3.37-13.1,3.71-17.22L933.01,313.6z M969.52,301.74c0-2.68,1.13-4.02,3.4-4.02
			c0.07,0,0.74,0.02,2.01,0.05c1.27,0.03,3.52,1.29,6.76,3.76c3.23,2.48,5.91,5.81,8.04,10c1.51,2.96,2.27,6.15,2.27,9.59
			c0,1.44-0.14,2.92-0.41,4.44c-1.93,7.63-7.15,22.58-15.68,44.86c-8.32,21.66-16.54,44.45-24.65,68.38
			c-7.56,22.21-11.34,41.43-11.34,57.65c0,1.24,0.03,2.44,0.1,3.61c-1.03,0.07-2.03,0.1-2.99,0.1c-14.37,0-21.55-4.16-21.55-12.48
			c0-0.41,0.03-0.86,0.1-1.34c0.14-2.48,1.55-8.06,4.23-16.76s6.5-20.51,11.45-35.43c9.01-25.09,17.67-50.6,25.99-76.52
			c8.18-25.71,12.27-44.1,12.27-55.17V301.74z"/>
		<path class="st0" d="M1039.46,354.96c8.32,3.44,13.03,9.94,14.13,19.49c0.27,2.48,0.41,5.02,0.41,7.63
			c0,7.29-1.27,15.64-3.82,25.06c-2.54,9.42-5.64,17.95-9.28,25.58c-3.78,8.6-10.04,17.63-18.77,27.12
			c-6.95,7.63-14.54,11.45-22.79,11.45c-1.99,0-4.06-0.24-6.19-0.72c-8.66-2.68-14.2-10.48-16.6-23.41
			c-0.48-2.75-0.72-5.71-0.72-8.87c0-11.76,3.51-26.4,10.52-43.93c8.18-18.56,17.08-30.56,26.71-35.99
			c6.05-3.44,11.79-5.15,17.22-5.15C1033.45,353.2,1036.51,353.79,1039.46,354.96z M997.28,456.75c5.43-2.13,10.84-7.91,16.24-17.33
			c5.4-9.42,10.11-19.92,14.13-31.51c4.02-11.58,6.72-21.78,8.1-30.58c0.48-2.95,0.72-5.43,0.72-7.43c0-3.78-0.89-5.67-2.68-5.67
			c-2.61,0-7.34,6.05-14.18,18.15c-6.84,12.1-12.74,25.37-17.69,39.81c-3.64,10.38-5.47,19.29-5.47,26.71
			C996.46,451.73,996.73,454.34,997.28,456.75z"/>
		<path class="st0" d="M1072.39,417.04h1.24c4.26,0,7.75,0.69,10.47,2.06c2.71,1.38,4.76,3.08,6.14,5.11
			c1.37,2.03,2.2,3.87,2.48,5.52c0.14,0.76,0.21,1.38,0.21,1.86c0,0.55-0.1,0.89-0.31,1.03c-5.36,3.23-9.94,7.5-13.72,12.79
			c-3.78,5.3-5.84,9.46-6.19,12.48l-0.1,1.44c0,2.27,0.43,4.35,1.29,6.24c0.86,1.89,2.42,2.84,4.69,2.84c4.26,0,8.11-1.1,11.55-3.3
			c3.44-2.2,6.41-5.02,8.92-8.46c2.51-3.44,4.42-7.12,5.72-11.03c1.31-3.92,1.96-7.6,1.96-11.04c0-13.96-1.51-25.7-4.54-35.22
			c-3.03-9.52-7.91-17.58-14.64-24.18c-3.03-2.48-4.54-5.22-4.54-8.25c0-0.34,0.03-0.72,0.1-1.14c0.48-3.5,2.37-5.81,5.67-6.91
			c2.54,0.62,5.29,0.93,8.25,0.93c3.23,0,6.7-0.38,10.42-1.14c7.15-1.51,12.69-2.92,16.6-4.23c0.76-0.27,1.41-0.48,1.96-0.62
			c0.76-0.2,1.51-0.31,2.27-0.31c0.48,0,0.93,0.04,1.34,0.1c1.17,0.2,2.23,0.55,3.2,1.03c0.96,0.41,1.72,0.83,2.27,1.24l0.83,0.62
			l0.1-0.83c0.07-0.48,0.17-1.1,0.31-1.86c0.14-0.68,0.38-1.41,0.72-2.16c0.34-0.69,0.76-1.24,1.24-1.65
			c0.41-0.34,0.93-0.51,1.55-0.51h0.52c5.43,0.41,8.87,2.75,10.31,7.01c0.62,1.72,0.93,3.5,0.93,5.36c0,2.68-0.65,5.5-1.96,8.45
			c-2.13,4.54-3.78,8.56-4.95,12.07c-1.17,3.51-2.17,7.36-2.99,11.55c-4.33-0.96-7.77-3.06-10.31-6.29
			c-1.58-1.99-2.37-4.85-2.37-8.56c0-2.2,0.27-4.67,0.83-7.43c-1.17,1.58-3.3,2.96-6.39,4.13c-3.09,1.1-6.22,2.03-9.39,2.78
			c-3.23,0.69-5.64,1.14-7.22,1.34c0.34,0.55,0.76,1.13,1.24,1.75c1.79,2.41,3.9,5.55,6.34,9.44c2.44,3.89,4.86,8.39,7.27,13.51
			c2.41,5.12,4.43,10.81,6.08,17.07s2.48,12.93,2.48,20.01c0,4.95-0.95,9.99-2.84,15.11c-1.89,5.12-4.68,9.8-8.35,14.03
			c-3.68,4.23-8.27,7.65-13.77,10.26c-5.5,2.61-11.9,3.92-19.18,3.92c-6.19,0-12.79-3.47-19.8-10.42
			c-3.51-3.44-6.26-7.15-8.25-11.14c-1.99-3.99-2.99-8.21-2.99-12.69c0-6.19,0.88-11.43,2.63-15.73c1.75-4.3,3.75-7.77,5.98-10.42
			c2.23-2.65,4.24-4.59,6.03-5.83L1072.39,417.04z"/>
	</g>
</g>
</svg>
