<svg id="Layer_1" data-name="Layer 1" xmlns="http://www.w3.org/2000/svg" viewBox="0 0 575.47 399"><defs><style>.cls-1{fill:#fff;}.cls-2{fill:#f7f7f7;}</style></defs><rect class="cls-1" width="575.47" height="399"/><path class="cls-2" d="M18.69,92.17a8.68,8.68,0,0,0,6,3.49,8.91,8.91,0,0,0,1,.07c4.94-.2,11.09-4,11.1-9.39-.87,5.31-6.66,8.23-11.53,8.06a10.47,10.47,0,0,1-1.12-.19,7.91,7.91,0,0,1-4.61-3,8.11,8.11,0,0,1-.85-7.72,8.18,8.18,0,0,1-6.82-3.27,8.38,8.38,0,0,1,.13-9.61c.22-.33.47-.65.74-1,3.61-4.12,10.06-2.67,15-1.9-5.45-1.15-12.55-3.44-16.3,1.3a9,9,0,0,0-.69.84,9,9,0,0,0-.27,10.59A8.78,8.78,0,0,0,17.66,84,8.73,8.73,0,0,0,18.69,92.17Z" transform="translate(-0.42)"/><path class="cls-2" d="M48.16,50c5.61-7.68,9.42-16.66,13.7-25.1.18-.32.36-.63.55-.93a27.56,27.56,0,0,1,7.89-8.3c10.25-7.33,22.94-4.59,32,7.9s7.75,25.81-2.5,33.13A36.19,36.19,0,0,1,94.27,60l-1,.45c-6.56,3.24-13.9,1.94-21.38,2.39a18.87,18.87,0,0,0-8.51,2.35c2.69-.75,5.27-2,8-2,7.93-.53,15.66,1.27,22.72-1.87l1-.41a35.66,35.66,0,0,0,6.7-3.81c10.6-7.57,11.72-21.61,2.06-35S81,5.69,70.39,13.25a27.69,27.69,0,0,0-9.2,10.64c-.17.34-.34.7-.51,1.07A257.1,257.1,0,0,1,47.62,50.42Z" transform="translate(-0.42)"/><path class="cls-2" d="M461.16,376.8a8.68,8.68,0,0,0,6,3.49,9.08,9.08,0,0,0,1,.07c4.93-.2,11.08-3.95,11.09-9.39-.87,5.31-6.66,8.23-11.53,8.06a10.47,10.47,0,0,1-1.12-.19,7.86,7.86,0,0,1-4.6-3,8.08,8.08,0,0,1-.86-7.72,8.18,8.18,0,0,1-6.82-3.27,8.38,8.38,0,0,1,.13-9.61c.22-.33.47-.65.74-1,3.61-4.12,10.06-2.67,15-1.9-5.45-1.15-12.56-3.44-16.31,1.3a9.33,9.33,0,0,0-1,11.43,8.79,8.79,0,0,0,7.18,3.56A8.73,8.73,0,0,0,461.16,376.8Z" transform="translate(-0.42)"/><path class="cls-2" d="M490.63,334.64c5.62-7.68,9.42-16.65,13.7-25.1.18-.32.36-.63.55-.93a27.68,27.68,0,0,1,7.89-8.3c10.25-7.33,22.94-4.59,32,7.9s7.75,25.81-2.5,33.13a36.58,36.58,0,0,1-5.5,3.27l-1,.45c-6.56,3.24-13.9,1.94-21.38,2.39a18.87,18.87,0,0,0-8.51,2.35c2.69-.75,5.27-2,8-2,7.92-.53,15.65,1.27,22.71-1.87l1-.41a35.66,35.66,0,0,0,6.7-3.81c10.6-7.57,11.72-21.61,2.06-35s-23-16.45-33.56-8.89a27.69,27.69,0,0,0-9.2,10.64c-.17.34-.34.7-.51,1.07a257.1,257.1,0,0,1-13.06,25.46Z" transform="translate(-0.42)"/><path class="cls-2" d="M206.16,272.49a16,16,0,0,0,11.12,6.44c.63.07,1.26.12,1.9.13,9.1-.37,20.42-7.27,20.44-17.3-1.62,9.78-12.27,15.16-21.24,14.84a15.54,15.54,0,0,1-2.06-.35,14.45,14.45,0,0,1-8.48-5.57,14.87,14.87,0,0,1-1.57-14.22,15,15,0,0,1-12.57-6c-3.76-5.19-3.44-12.18.23-17.7a22.52,22.52,0,0,1,1.37-1.8c6.65-7.59,18.52-4.92,27.54-3.51-10-2.11-23.12-6.32-30,2.39-.45.5-.87,1-1.26,1.55-4.28,5.87-4.71,13.69-.5,19.51a16.19,16.19,0,0,0,13.23,6.56A16,16,0,0,0,206.16,272.49Z" transform="translate(-0.42)"/><path class="cls-2" d="M260.45,194.85c10.33-14.14,17.34-30.67,25.22-46.22.33-.58.67-1.16,1-1.72a50.88,50.88,0,0,1,14.53-15.28c18.89-13.49,42.25-8.45,58.9,14.55s14.28,47.53-4.61,61a67.28,67.28,0,0,1-10.13,6l-1.79.83c-12.1,6-25.6,3.58-39.38,4.41a34.41,34.41,0,0,0-15.67,4.32c5-1.39,9.7-3.63,14.81-3.65,14.59-1,28.83,2.34,41.83-3.44.63-.24,1.26-.49,1.88-.76a65.62,65.62,0,0,0,12.35-7c19.51-13.93,21.57-39.8,3.78-64.38s-42.29-30.3-61.8-16.36a50.86,50.86,0,0,0-16.94,19.58c-.32.64-.63,1.29-.95,2a474.86,474.86,0,0,1-24,46.88C259.77,195.37,260.09,195.11,260.45,194.85Z" transform="translate(-0.42)"/></svg>