<svg id="Layer_1" data-name="Layer 1" xmlns="http://www.w3.org/2000/svg" viewBox="0 0 451.51 392.17"><defs><style>.cls-1{fill:#f5f5f5;}.cls-2{fill:#e0e0e0;}.cls-3{fill:#ebebeb;}.cls-4{fill:#263238;}.cls-5{fill:#fafafa;}.cls-6{fill:#e8505b;}.cls-7{opacity:0.8;}.cls-8{fill:#fff;}.cls-9{fill:#455a64;}.cls-10{fill:#ffbe9d;}.cls-11{fill:#eb996e;}.cls-12{opacity:0.2;}.cls-13{opacity:0.3;}</style></defs><path class="cls-1" d="M357,414.87c-1.59-1.36-5.14-5.68-2.4-10.7,1-1.84,3.13-2.76,5.05-3.57a20.3,20.3,0,0,0,5.55-2.87c3-2.56,3.84-6.81,5.83-10.22,2.3-3.92,6.57-6.86,11.09-6.65,5.18.23,9.49,4.46,11.45,9.28s2,10.17,2.07,15.38c0,2.87-.11,6.12-2.22,8.06-2,1.79-4.88,1.82-7.52,1.73l-28.28-.86" transform="translate(-27.28 -33.18)"/><path class="cls-2" d="M411.08,337.1H336.7L350.1,417a8.92,8.92,0,0,0,6.35,7.11l.26.07c.22.06.44.14.66.18a9.43,9.43,0,0,0,1.52.17v.08l.36-.06h33.15a9.94,9.94,0,0,0,1.82-.18,9,9,0,0,0,7.53-7.81l6.46-55.05.29-2.18h0l2.56-21.8Zm-14,51h-7.63l.77-23.18H399Zm2.72-23.18h7.31l-2.72,23.18h-6.57ZM378,413.76l-.46-20.14h11l-.67,20.14Zm-11.88-20.14h10.68l.46,20.14h-9.57Zm.83,20.14h-9c-.85-5.43-2-12.5-3.16-20.14h10.55Zm-1.26-25.7-1.8-23.18H376.1l.53,23.18Zm11.72,0-.53-23.18h12.61l-.77,23.18Zm-.66-28.74-.5-21.48h14.13l-.71,21.48Zm-.74,0H363.41l-1.66-21.48h13.73Zm-13.3,0H349.39c-.47-3-.92-5.78-1.32-8.3-1.39-8.68-1.91-11.95-2.2-13.18H361Zm.44,5.56,1.8,23.18h-11c-.37-2.35-.74-4.73-1.12-7.11-.86-5.48-1.72-10.95-2.53-16.07Zm-9.94,23.18H346l-3.89-23.18h7.41C350.65,372,351.91,380,353.17,388.06Zm.88,5.56c1.09,7,2.17,13.84,3.15,20.14h-6.89l-3.38-20.14Zm34.51,20.14.67-20.14h7.34l-1.72,20.14Zm1.81-54.44.71-21.48h10.26l-1.84,21.48Zm-45.2-21.48c.3,1.56,1.65,10,3.47,21.48h-7.46l-3.61-21.48Zm56.17,75.92h-5.75l1.72-20.14h6.39Zm6.39-54.44h-7.49l1.84-21.48h8.17Z" transform="translate(-27.28 -33.18)"/><path class="cls-2" d="M118.07,167.86s-.17-.31-.46-.89l-1.29-2.58-4.86-9.81c-4.18-8.47-10.15-20.6-17.4-35.3l.29.09L27.75,152h0l.12-.35c8.53,17.47,16.62,34,23.79,48.69l-.32-.11,48.08-23.39,13.71-6.64,3.66-1.75.94-.45.34-.15-.3.16-.91.46-3.59,1.79L99.67,177,51.55,200.66l-.21.11-.11-.21C44.06,185.9,36,169.35,27.4,151.89l-.12-.24.24-.11h0L94.16,119l.19-.09.09.19c7.19,14.79,13.12,27,17.26,35.52l4.74,9.81c.53,1.12.94,2,1.23,2.57Z" transform="translate(-27.28 -33.18)"/><path class="cls-2" d="M94.25,119.18a.82.82,0,0,1-.06.26q-.09.3-.24.75c-.23.7-.55,1.66-1,2.87-.87,2.53-2.11,6.11-3.64,10.53L77.17,168.23c-.66.33-.19.09-.34.16h-.06l-.08,0-.16-.05-.32-.11-.64-.21-1.26-.42-2.51-.83-4.89-1.63L57.66,162,42,156.74l-10.54-3.58-2.85-1-.74-.28a.85.85,0,0,1-.25-.11l.27.06.75.23,2.89.9,10.59,3.43,15.68,5.16,9.26,3.06,4.9,1.62,2.5.83,1.27.42.63.21.32.1.16.06.08,0,0,0h0c-.14.08.34-.15-.31.17,4.81-13.49,9.16-25.71,12.32-34.6,1.6-4.39,2.89-8,3.8-10.46.44-1.21.8-2.15,1-2.84.12-.3.21-.54.29-.73S94.25,119.18,94.25,119.18Z" transform="translate(-27.28 -33.18)"/><path class="cls-2" d="M60.46,162.68c.14,0-1.76,8.57-4.25,19.07s-4.63,19-4.77,18.95,1.77-8.57,4.26-19.07S60.32,162.65,60.46,162.68Z" transform="translate(-27.28 -33.18)"/><path class="cls-2" d="M118.77,168.22c-.06.13-8.06-3.79-17.87-8.75s-17.71-9.09-17.64-9.22S91.33,154,101.14,159,118.84,168.09,118.77,168.22Z" transform="translate(-27.28 -33.18)"/><path class="cls-2" d="M447.56,173.58s.15-.24.45-.67l1.34-1.88,5.1-7.15,18.47-25.71,0,.29-51.4-37.12h0l.37,0-25.55,35.27-.05-.33,36.92,26.86,10.54,7.7,2.81,2.07.72.54a2.8,2.8,0,0,1,.25.19l-.24-.16c-.18-.12-.42-.28-.72-.5l-2.8-2-10.57-7.57c-9.11-6.54-22-15.82-37.19-26.75l-.2-.14.14-.19L421.49,101l.16-.21.21.15h0l51.35,37.21.17.12-.13.17L454.54,164.1l-5.17,7.05L448,173C447.72,173.39,447.56,173.58,447.56,173.58Z" transform="translate(-27.28 -33.18)"/><path class="cls-2" d="M473.09,138.29a5.83,5.83,0,0,1-.87.16l-2.49.34L460.56,140l-30.26,3.68-.3-.22v-.12l0-.14-.05-.27-.11-.55-.22-1.08c-.15-.72-.29-1.44-.44-2.15q-.42-2.13-.84-4.2c-.55-2.75-1.09-5.4-1.59-7.93-1-5.06-1.91-9.61-2.67-13.45s-1.33-6.88-1.75-9.08c-.19-1-.34-1.86-.45-2.47a4.54,4.54,0,0,1-.12-.87,8.11,8.11,0,0,1,.22.85c.14.61.32,1.42.55,2.45.46,2.19,1.11,5.26,1.91,9s1.73,8.38,2.78,13.42c.51,2.53,1.06,5.18,1.62,7.93.28,1.38.56,2.78.85,4.2.15.71.29,1.43.44,2.15l.22,1.08.11.55,0,.27,0,.13v.11h0c-.12-.08.29.22-.28-.19l30.29-3.53,9.19-1,2.5-.25A5.25,5.25,0,0,1,473.09,138.29Z" transform="translate(-27.28 -33.18)"/><path class="cls-2" d="M427.4,129.27c0,.14-7,1.88-15.64,3.87S396,136.64,396,136.5s7-1.87,15.64-3.87S427.37,129.13,427.4,129.27Z" transform="translate(-27.28 -33.18)"/><path class="cls-2" d="M447.59,174.23c-.14,0-.63-7.31-1.1-16.34s-.72-16.36-.57-16.36.63,7.3,1.09,16.34S447.73,174.22,447.59,174.23Z" transform="translate(-27.28 -33.18)"/><path class="cls-2" d="M346.76,356.74l.77.3,2.23.92,8.42,3.52,30.32,12.76-.27.11,25.7-60.68h0l.14.34L372.42,296.3l.31-.13-18.66,43.64c-2.29,5.33-4.1,9.55-5.36,12.46l-1.44,3.32-.37.85-.14.3a1,1,0,0,1,.1-.28c.08-.21.2-.49.34-.85l1.37-3.29,5.22-12.46L372.29,296l.09-.22.22.09,41.68,17.67.24.1-.11.24h0l-25.8,60.63-.08.19-.19-.08-30.36-13-8.34-3.6-2.16-.94Z" transform="translate(-27.28 -33.18)"/><path class="cls-2" d="M388.42,374.43a.93.93,0,0,1-.1-.21c-.07-.17-.15-.38-.26-.63-.22-.6-.53-1.42-.92-2.44l-3.31-9-10.74-29.81c.28-.66.09-.19.15-.34h0l0,0,.07,0,.13-.06.26-.12.53-.24,1.05-.47,2.07-.94,4.06-1.83,7.67-3.45,13-5.81,8.78-3.88,2.4-1,.63-.26c.15-.06.22-.08.22-.07s-.06.05-.2.12l-.6.3L411,315.31l-8.72,4-13,5.92-7.66,3.48-4.05,1.84-2.08.93-1.05.48-.52.24-.27.12-.13,0-.06,0,0,0h0c.05-.14-.15.33.12-.32,4.13,11.64,7.87,22.18,10.59,29.87,1.33,3.79,2.4,6.88,3.16,9.07.35,1,.63,1.86.83,2.47.08.26.15.48.21.65A.76.76,0,0,1,388.42,374.43Z" transform="translate(-27.28 -33.18)"/><path class="cls-2" d="M387,326.06c-.13.06-3.51-6.63-7.54-15s-7.19-15.12-7.06-15.18,3.5,6.63,7.53,15S387.1,326,387,326.06Z" transform="translate(-27.28 -33.18)"/><path class="cls-2" d="M346.1,356.92c0-.14,7.26-2.32,16.3-4.88s16.41-4.52,16.45-4.39-7.26,2.33-16.3,4.89S346.14,357.06,346.1,356.92Z" transform="translate(-27.28 -33.18)"/><rect class="cls-3" x="85.11" width="298.99" height="251.35"/><path class="cls-2" d="M113,50.53c0-.14,66.68-.26,148.91-.26s148.92.12,148.92.26-66.66.26-148.92.26S113,50.68,113,50.53Z" transform="translate(-27.28 -33.18)"/><circle class="cls-2" cx="94.79" cy="8.35" r="3.2"/><circle class="cls-2" cx="103.68" cy="8.35" r="3.2"/><circle class="cls-2" cx="113.54" cy="8.35" r="3.2"/><path class="cls-4" d="M464.48,425.08c0,.15-97.59.26-217.94.26s-218-.11-218-.26,97.57-.26,218-.26S464.48,424.94,464.48,425.08Z" transform="translate(-27.28 -33.18)"/><path class="cls-5" d="M399.87,311.22c0-1.84-.09-102.53-.22-257.91l.22.22-306.76,0h0l.27-.26c0,93.46,0,181.61,0,257.91l-.24-.24,306.79.24-306.79.23h-.23v-.23c0-76.3,0-164.45,0-257.91v-.26h.29l306.76,0h.22v.22C400,208.69,399.87,309.39,399.87,311.22Z" transform="translate(-27.28 -33.18)"/><rect class="cls-5" x="65.8" y="20.14" width="306.79" height="257.9"/><rect class="cls-3" x="66.39" y="37.94" width="110.16" height="25.25"/><path class="cls-4" d="M121.46,91.47s0-.34,0-.93,0-1.5,0-2.55c0-2.24-.06-5.33-.11-9.08l.21.21-18.27,0,.26-.26h0v1.66c0,.55,0,1.1,0,1.65v3.21c0,2.1,0,4.12,0,6l-.23-.24,13.1.12,3.78.06,1,0,.37,0s-.43,0-1.29,0l-3.73.07-13.25.11H103v-.24c0-1.91,0-3.93,0-6V78.92h0c-.23.24.32-.32.27-.26l18.27,0h.21v.21c0,3.8-.08,6.94-.11,9.21,0,1,0,1.87,0,2.5A5.26,5.26,0,0,1,121.46,91.47Z" transform="translate(-27.28 -33.18)"/><path class="cls-4" d="M121.46,78.91s-.21.29-.65.74-1.09,1.09-1.9,1.87c-1.62,1.55-3.89,3.68-6.41,6h-.37v0l0,0-.06,0-.12-.11-.23-.22-.47-.42q-.45-.44-.9-.84l-1.71-1.6-2.86-2.72c-.81-.77-1.46-1.41-1.91-1.86s-.67-.71-.64-.74a4.31,4.31,0,0,1,.78.59c.49.4,1.17,1,2,1.74l2.94,2.64,1.72,1.57c.3.28.61.55.91.84l.47.42.23.22.12.11.06,0,0,0h0c-.16,0,.35,0-.35,0,2.52-2.33,4.82-4.42,6.51-5.91.84-.74,1.53-1.34,2-1.74A4.54,4.54,0,0,1,121.46,78.91Z" transform="translate(-27.28 -33.18)"/><path class="cls-4" d="M109.27,84.52a20.41,20.41,0,0,1-2.86,3.67,21.49,21.49,0,0,1-3.25,3.33A20.41,20.41,0,0,1,106,87.85,21.49,21.49,0,0,1,109.27,84.52Z" transform="translate(-27.28 -33.18)"/><path class="cls-4" d="M121.58,91.61a21.46,21.46,0,0,1-3.16-3.51,21.51,21.51,0,0,1-2.76-3.84,20.94,20.94,0,0,1,3.16,3.51A21.51,21.51,0,0,1,121.58,91.61Z" transform="translate(-27.28 -33.18)"/><path class="cls-4" d="M191.19,83.31c0,.14-12.9.26-28.8.26s-28.79-.12-28.79-.26,12.89-.26,28.79-.26S191.19,83.16,191.19,83.31Z" transform="translate(-27.28 -33.18)"/><rect class="cls-6" x="175.16" y="150.1" width="197.43" height="43.26"/><g class="cls-7"><rect class="cls-8" x="175.16" y="150.1" width="197.43" height="43.26"/></g><rect class="cls-6" x="187.86" y="163.63" width="16.21" height="16.21" rx="2.25"/><path class="cls-8" d="M222,208.51a1,1,0,0,1-.6-.2l-3.27-2.45a1,1,0,1,1,1.2-1.6l2.55,1.91,5.12-5.56a1,1,0,0,1,1.47,1.36l-5.73,6.22A1,1,0,0,1,222,208.51Z" transform="translate(-27.28 -33.18)"/><rect class="cls-6" x="175.16" y="106.62" width="197.43" height="43.26"/><path class="cls-4" d="M398.68,183.23c0,.14-43.62.26-97.42.26s-97.42-.12-97.42-.26,43.61-.26,97.42-.26S398.68,183.08,398.68,183.23Z" transform="translate(-27.28 -33.18)"/><rect class="cls-6" x="175.26" y="236.59" width="197.43" height="41.45"/><g class="cls-7"><rect class="cls-8" x="175.26" y="236.59" width="197.43" height="41.45"/></g><rect class="cls-6" x="187.96" y="250.11" width="16.21" height="16.21" rx="2.25"/><path class="cls-8" d="M222.12,295a1,1,0,0,1-.6-.2l-3.27-2.46a1,1,0,1,1,1.2-1.59l2.55,1.91,5.12-5.56a1,1,0,0,1,1.41-.06,1,1,0,0,1,.06,1.42l-5.73,6.22A1,1,0,0,1,222.12,295Z" transform="translate(-27.28 -33.18)"/><g class="cls-7"><rect class="cls-8" x="175.16" y="106.62" width="197.43" height="43.26"/></g><rect class="cls-6" x="187.86" y="120.14" width="16.21" height="16.21" rx="2.25"/><path class="cls-8" d="M222,165a1,1,0,0,1-.6-.2l-3.27-2.45a1,1,0,1,1,1.2-1.6l2.55,1.91,5.12-5.56a1,1,0,0,1,1.47,1.36l-5.73,6.22A1,1,0,0,1,222,165Z" transform="translate(-27.28 -33.18)"/><path class="cls-6" d="M399.87,311.22c0-1.84-.09-102.53-.22-257.91l.22.22-306.76,0h0l.27-.26c0,93.46,0,181.61,0,257.91l-.24-.24,306.79.24-306.79.23h-.23v-.23c0-76.3,0-164.45,0-257.91v-.26h.29l306.76,0h.22v.22C400,208.69,399.87,309.39,399.87,311.22Z" transform="translate(-27.28 -33.18)"/><path class="cls-6" d="M93.68,71.12c0-.14,68.41-.26,152.79-.26s152.81.12,152.81.26-68.4.26-152.81.26S93.68,71.26,93.68,71.12Z" transform="translate(-27.28 -33.18)"/><circle class="cls-6" cx="75.73" cy="28.7" r="3.28"/><circle class="cls-6" cx="84.86" cy="28.7" r="3.28"/><path class="cls-6" d="M124.58,59.56a3.28,3.28,0,1,1-4.64,0A3.28,3.28,0,0,1,124.58,59.56Z" transform="translate(-27.28 -33.18)"/><path class="cls-4" d="M133.84,106.53a3.74,3.74,0,0,1,.71,0l2.08-.06,7.62-.1h.1l.06.09,3.36,4.42,0,.06V111c0,2,0,4.23,0,6.52v.26h-3.32l-13.72,0h-.22v-.22c0-2.26,0-4.26.06-6v0l0,0c1-1.52,1.75-2.75,2.34-3.66a12.61,12.61,0,0,1,.85-1.25,1.3,1.3,0,0,1-.18.38c-.15.28-.34.61-.57,1l-2.16,3.69,0-.08c0,1.7,0,3.7,0,6l-.22-.22,13.72,0h3.07l-.26.26c0-2.29,0-4.5,0-6.52l0,.15-3.3-4.46.17.08-7.54-.1-2.1,0A4.33,4.33,0,0,1,133.84,106.53Z" transform="translate(-27.28 -33.18)"/><path class="cls-4" d="M147.58,111.28a5.83,5.83,0,0,1-1.45.2c-.92.08-2.24.18-3.81.27l.21-.21a4.43,4.43,0,0,1-.79,2.33,3.17,3.17,0,0,1-1,.91,3.59,3.59,0,0,1-1.4.33,3.5,3.5,0,0,1-2.75-1.16,5.18,5.18,0,0,1-1.12-2.39l.22.19c-1.46,0-2.68-.06-3.53-.1a5.45,5.45,0,0,1-1.33-.12,5.09,5.09,0,0,1,1.33-.13c.85,0,2.07-.07,3.53-.1h.17l.05.19a4.8,4.8,0,0,0,1,2.12,3,3,0,0,0,2.36,1,3.09,3.09,0,0,0,1.18-.27,2.79,2.79,0,0,0,.88-.75,4.19,4.19,0,0,0,.74-2l0-.21h.19c1.58,0,2.9-.08,3.83-.08A5.76,5.76,0,0,1,147.58,111.28Z" transform="translate(-27.28 -33.18)"/><path class="cls-4" d="M185.17,107.05A4.07,4.07,0,0,1,186,107v.16c-2,.11-8.19.18-15.45.18-4.5,0-8.58,0-11.52-.07l-3.5-.09a5.77,5.77,0,0,1-1.28-.1,6.66,6.66,0,0,1,1.28-.1l3.5-.08c2.94-.05,7-.08,11.52-.08,7.26,0,13.41.08,15.45.18v.16A2.83,2.83,0,0,1,185.17,107.05Z" transform="translate(-27.28 -33.18)"/><path class="cls-4" d="M185.17,113.6a2.83,2.83,0,0,1,.85-.08v.16c-2,.1-8.19.18-15.45.18-4.5,0-8.58,0-11.52-.08l-3.5-.08a6.66,6.66,0,0,1-1.28-.1,5.77,5.77,0,0,1,1.28-.1l3.5-.09c2.94,0,7-.07,11.52-.07,7.26,0,13.41.07,15.45.18v.16A3.34,3.34,0,0,1,185.17,113.6Z" transform="translate(-27.28 -33.18)"/><path class="cls-4" d="M185.17,120.14a4.07,4.07,0,0,1,.85-.08v.16c-2,.11-8.19.18-15.45.18-4.5,0-8.58,0-11.52-.07l-3.5-.08a6.07,6.07,0,0,1-1.28-.11,6.66,6.66,0,0,1,1.28-.1l3.5-.08c2.94,0,7-.08,11.52-.08,7.26,0,13.41.08,15.45.18v.16A2.83,2.83,0,0,1,185.17,120.14Z" transform="translate(-27.28 -33.18)"/><path class="cls-4" d="M133.84,153.37a3.74,3.74,0,0,1,.71-.05l2.08-.06,7.62-.1h.1l.06.09,3.36,4.42,0,.06v.08c0,2,0,4.23,0,6.52v.26h-3.32l-13.72,0h-.22v-.22c0-2.26,0-4.26.06-6v-.05l0,0c1-1.52,1.75-2.75,2.34-3.66a12.61,12.61,0,0,1,.85-1.25,1.3,1.3,0,0,1-.18.38c-.15.28-.34.61-.57,1l-2.16,3.69,0-.08c0,1.7,0,3.7,0,6l-.22-.22,13.72,0h3.07l-.26.26c0-2.29,0-4.5,0-6.52l0,.15-3.3-4.46.17.08-7.54-.1-2.1,0A4.33,4.33,0,0,1,133.84,153.37Z" transform="translate(-27.28 -33.18)"/><path class="cls-4" d="M147.58,158.12a5.83,5.83,0,0,1-1.45.2c-.92.08-2.24.18-3.81.27l.21-.21a4.43,4.43,0,0,1-.79,2.33,3.17,3.17,0,0,1-1,.91,3.59,3.59,0,0,1-1.4.33,3.5,3.5,0,0,1-2.75-1.16,5.18,5.18,0,0,1-1.12-2.39l.22.19c-1.46,0-2.68-.06-3.53-.1a5.45,5.45,0,0,1-1.33-.12,5.09,5.09,0,0,1,1.33-.13c.85,0,2.07-.07,3.53-.1h.17l.05.19a4.8,4.8,0,0,0,1,2.12,3,3,0,0,0,2.36,1,3.09,3.09,0,0,0,1.18-.27,2.79,2.79,0,0,0,.88-.75,4.19,4.19,0,0,0,.74-2l0-.21h.19c1.58,0,2.9-.08,3.83-.09A6,6,0,0,1,147.58,158.12Z" transform="translate(-27.28 -33.18)"/><path class="cls-4" d="M185.17,153.89a4.07,4.07,0,0,1,.85-.08V154c-2,.11-8.19.18-15.45.18-4.5,0-8.58,0-11.52-.07l-3.5-.09a5.77,5.77,0,0,1-1.28-.1,6.66,6.66,0,0,1,1.28-.1l3.5-.08c2.94-.05,7-.08,11.52-.08,7.26,0,13.41.08,15.45.18V154A2.83,2.83,0,0,1,185.17,153.89Z" transform="translate(-27.28 -33.18)"/><path class="cls-4" d="M185.17,160.44a2.83,2.83,0,0,1,.85-.08v.16c-2,.1-8.19.18-15.45.18-4.5,0-8.58,0-11.52-.08l-3.5-.08a6.66,6.66,0,0,1-1.28-.1,5.77,5.77,0,0,1,1.28-.1l3.5-.09c2.94,0,7-.07,11.52-.07,7.26,0,13.41.07,15.45.18v.16A3.34,3.34,0,0,1,185.17,160.44Z" transform="translate(-27.28 -33.18)"/><path class="cls-4" d="M185.17,167a4.07,4.07,0,0,1,.85-.08v.16c-2,.11-8.19.18-15.45.18-4.5,0-8.58,0-11.52-.07l-3.5-.08a6.07,6.07,0,0,1-1.28-.11,6.66,6.66,0,0,1,1.28-.1l3.5-.08c2.94-.05,7-.08,11.52-.08,7.26,0,13.41.08,15.45.18v.16A2.83,2.83,0,0,1,185.17,167Z" transform="translate(-27.28 -33.18)"/><path class="cls-4" d="M133.84,200.21a3.74,3.74,0,0,1,.71-.05l2.08-.06,7.62-.1h.1l.06.09,3.36,4.42,0,.06v.08c0,2,0,4.23,0,6.52v.26h-3.32l-13.72,0h-.22v-.22c0-2.26,0-4.26.06-6v-.05l0,0c1-1.52,1.75-2.75,2.34-3.66a12.61,12.61,0,0,1,.85-1.25,1.3,1.3,0,0,1-.18.38c-.15.28-.34.61-.57,1l-2.16,3.69,0-.08c0,1.7,0,3.7,0,6l-.22-.22,13.72,0h3.07l-.26.26c0-2.29,0-4.5,0-6.52l0,.15-3.3-4.46.17.08-7.54-.1-2.1,0A4.33,4.33,0,0,1,133.84,200.21Z" transform="translate(-27.28 -33.18)"/><path class="cls-4" d="M147.58,205a5.83,5.83,0,0,1-1.45.2c-.92.08-2.24.18-3.81.27l.21-.21a4.43,4.43,0,0,1-.79,2.33,3.17,3.17,0,0,1-1,.91,3.59,3.59,0,0,1-1.4.33,3.5,3.5,0,0,1-2.75-1.16,5.18,5.18,0,0,1-1.12-2.39l.22.19c-1.46,0-2.68-.06-3.53-.1a5.45,5.45,0,0,1-1.33-.12,5.09,5.09,0,0,1,1.33-.13c.85,0,2.07-.07,3.53-.1h.17l.05.19a4.8,4.8,0,0,0,1,2.12,3,3,0,0,0,2.36,1,3.09,3.09,0,0,0,1.18-.27,2.79,2.79,0,0,0,.88-.75,4.19,4.19,0,0,0,.74-2.05l0-.21h.19c1.58,0,2.9-.08,3.83-.09A6,6,0,0,1,147.58,205Z" transform="translate(-27.28 -33.18)"/><path class="cls-4" d="M185.17,200.73a4.07,4.07,0,0,1,.85-.08v.16c-2,.11-8.19.18-15.45.18-4.5,0-8.58,0-11.52-.07l-3.5-.09a5.77,5.77,0,0,1-1.28-.1,6.66,6.66,0,0,1,1.28-.1l3.5-.08c2.94-.05,7-.08,11.52-.08,7.26,0,13.41.08,15.45.18v.16A2.83,2.83,0,0,1,185.17,200.73Z" transform="translate(-27.28 -33.18)"/><path class="cls-4" d="M185.17,207.28a2.83,2.83,0,0,1,.85-.08v.16c-2,.1-8.19.18-15.45.18-4.5,0-8.58,0-11.52-.08l-3.5-.08a6.66,6.66,0,0,1-1.28-.1,5.77,5.77,0,0,1,1.28-.1l3.5-.09c2.94,0,7-.07,11.52-.07,7.26,0,13.41.07,15.45.18v.16A3.34,3.34,0,0,1,185.17,207.28Z" transform="translate(-27.28 -33.18)"/><path class="cls-4" d="M185.17,213.82a4.07,4.07,0,0,1,.85-.08v.16c-2,.11-8.19.18-15.45.18-4.5,0-8.58,0-11.52-.07l-3.5-.08a6.07,6.07,0,0,1-1.28-.11,6.66,6.66,0,0,1,1.28-.1l3.5-.08c2.94,0,7-.08,11.52-.08,7.26,0,13.41.08,15.45.18v.16A2.83,2.83,0,0,1,185.17,213.82Z" transform="translate(-27.28 -33.18)"/><path class="cls-6" d="M384,170.06h-7.62a3.06,3.06,0,0,1-3.05-3.05V154.35h1V167a2.05,2.05,0,0,0,2.05,2.05H384a2,2,0,0,0,2-2.05V154.79h1V167A3,3,0,0,1,384,170.06Z" transform="translate(-27.28 -33.18)"/><rect class="cls-6" x="344.75" y="121.24" width="16.22" height="1"/><path class="cls-6" d="M377.19,154.92h-1v-1.11a2,2,0,0,1,2-2h4a2,2,0,0,1,2,2v.89h-1v-.89a1,1,0,0,0-1-1h-4a1,1,0,0,0-1,1Z" transform="translate(-27.28 -33.18)"/><path class="cls-6" d="M377.78,166.31a18.14,18.14,0,0,1-.26-4.29,18.2,18.2,0,0,1,.26-4.3,17.27,17.27,0,0,1,.27,4.3A17.22,17.22,0,0,1,377.78,166.31Z" transform="translate(-27.28 -33.18)"/><path class="cls-6" d="M380.18,166.31a18.14,18.14,0,0,1-.26-4.29,18.2,18.2,0,0,1,.26-4.3,17.27,17.27,0,0,1,.27,4.3A17.22,17.22,0,0,1,380.18,166.31Z" transform="translate(-27.28 -33.18)"/><path class="cls-6" d="M382.55,166.31a18.14,18.14,0,0,1-.26-4.29,18.2,18.2,0,0,1,.26-4.3,17.58,17.58,0,0,1,.26,4.3A17.53,17.53,0,0,1,382.55,166.31Z" transform="translate(-27.28 -33.18)"/><path class="cls-6" d="M384,211.05h-7.62a3.06,3.06,0,0,1-3.05-3.05V195.34h1V208a2.05,2.05,0,0,0,2.05,2.05H384a2,2,0,0,0,2-2.05V195.78h1V208A3,3,0,0,1,384,211.05Z" transform="translate(-27.28 -33.18)"/><rect class="cls-6" x="344.75" y="162.23" width="16.22" height="1"/><path class="cls-6" d="M377.19,195.91h-1V194.8a2,2,0,0,1,2-2h4a2,2,0,0,1,2,2v.9h-1v-.9a1,1,0,0,0-1-1h-4a1,1,0,0,0-1,1Z" transform="translate(-27.28 -33.18)"/><path class="cls-6" d="M377.78,207.31a18.26,18.26,0,0,1-.26-4.3,18.26,18.26,0,0,1,.26-4.3,17.34,17.34,0,0,1,.27,4.3A17.34,17.34,0,0,1,377.78,207.31Z" transform="translate(-27.28 -33.18)"/><path class="cls-6" d="M380.18,207.31a18.26,18.26,0,0,1-.26-4.3,18.26,18.26,0,0,1,.26-4.3,17.34,17.34,0,0,1,.27,4.3A17.34,17.34,0,0,1,380.18,207.31Z" transform="translate(-27.28 -33.18)"/><path class="cls-6" d="M382.55,207.31a18.26,18.26,0,0,1-.26-4.3,18.26,18.26,0,0,1,.26-4.3,17.65,17.65,0,0,1,.26,4.3A17.65,17.65,0,0,1,382.55,207.31Z" transform="translate(-27.28 -33.18)"/><path class="cls-6" d="M384,301.17h-7.62a3.06,3.06,0,0,1-3.05-3.05V285.46h1v12.66a2.05,2.05,0,0,0,2.05,2.05H384a2,2,0,0,0,2-2.05V285.9h1v12.22A3,3,0,0,1,384,301.17Z" transform="translate(-27.28 -33.18)"/><rect class="cls-6" x="344.75" y="252.35" width="16.22" height="1"/><path class="cls-6" d="M377.19,286h-1v-1.11a2,2,0,0,1,2-2h4a2,2,0,0,1,2,2v.89h-1v-.89a1,1,0,0,0-1-1h-4a1,1,0,0,0-1,1Z" transform="translate(-27.28 -33.18)"/><path class="cls-6" d="M377.78,297.42a35.61,35.61,0,0,1,0-8.59,34.3,34.3,0,0,1,0,8.59Z" transform="translate(-27.28 -33.18)"/><path class="cls-6" d="M380.18,297.42a35.61,35.61,0,0,1,0-8.59,34.3,34.3,0,0,1,0,8.59Z" transform="translate(-27.28 -33.18)"/><path class="cls-6" d="M382.55,297.42a35.61,35.61,0,0,1,0-8.59,35.61,35.61,0,0,1,0,8.59Z" transform="translate(-27.28 -33.18)"/><path class="cls-4" d="M388.09,122.8a7.27,7.27,0,0,1,0-.93c0-.64,0-1.49-.05-2.55,0-2.23-.07-5.33-.11-9.07l.21.21-18.28.05c-.06,0,.49-.49.26-.26h0v3.29c0,1.09,0,2.16,0,3.21,0,2.1,0,4.12,0,6l-.24-.24,13.1.12,3.79.06,1,0,.37,0a10.46,10.46,0,0,1-1.29.06l-3.73.06-13.26.12h-.24v-.24c0-1.91,0-3.93,0-6,0-1,0-2.12,0-3.21v-3.29h0l.26-.26,18.28.05h.21v.21c-.05,3.8-.09,6.94-.11,9.2,0,1,0,1.87-.06,2.51A6.27,6.27,0,0,1,388.09,122.8Z" transform="translate(-27.28 -33.18)"/><path class="cls-4" d="M388.09,110.25a4.27,4.27,0,0,1-.65.73c-.44.45-1.1,1.09-1.91,1.87-1.62,1.56-3.88,3.69-6.41,6h-.38l0,0-.06-.06-.11-.1-.24-.22-.46-.43-.91-.84-1.7-1.59-2.87-2.72c-.81-.78-1.46-1.42-1.9-1.87a4.27,4.27,0,0,1-.65-.73,3.6,3.6,0,0,1,.79.58c.48.41,1.17,1,2,1.75l2.94,2.64,1.73,1.57.91.83.46.43.24.21.12.11.06.06,0,0v0h-.34c2.52-2.33,4.83-4.41,6.51-5.9.85-.75,1.54-1.34,2-1.75S388.06,110.22,388.09,110.25Z" transform="translate(-27.28 -33.18)"/><path class="cls-4" d="M375.9,115.86a22.05,22.05,0,0,1-2.86,3.67,20.4,20.4,0,0,1-3.26,3.32,21.24,21.24,0,0,1,2.86-3.67A20.4,20.4,0,0,1,375.9,115.86Z" transform="translate(-27.28 -33.18)"/><path class="cls-4" d="M388.2,123a22.37,22.37,0,0,1-3.16-3.52,21.74,21.74,0,0,1-2.75-3.84,21.81,21.81,0,0,1,3.16,3.52A21.13,21.13,0,0,1,388.2,123Z" transform="translate(-27.28 -33.18)"/><path class="cls-4" d="M398.68,96.37c0,.15-43.62.26-97.42.26s-97.42-.11-97.42-.26,43.61-.26,97.42-.26S398.68,96.23,398.68,96.37Z" transform="translate(-27.28 -33.18)"/><path class="cls-4" d="M398.68,139.8c0,.14-43.62.26-97.42.26s-97.42-.12-97.42-.26,43.61-.26,97.42-.26S398.68,139.66,398.68,139.8Z" transform="translate(-27.28 -33.18)"/><path class="cls-4" d="M398.68,225.76c0,.14-43.62.26-97.42.26s-97.42-.12-97.42-.26,43.61-.26,97.42-.26S398.68,225.62,398.68,225.76Z" transform="translate(-27.28 -33.18)"/><path class="cls-4" d="M398.68,269.77c0,.14-43.62.26-97.42.26s-97.42-.12-97.42-.26,43.61-.26,97.42-.26S398.68,269.62,398.68,269.77Z" transform="translate(-27.28 -33.18)"/><path class="cls-4" d="M229.11,126.49a5.61,5.61,0,0,0,.6-.13,2.26,2.26,0,0,0,1.28-1.08c.39-.65.19-1.62.22-2.71s0-2.36,0-3.73,0-2.89,0-4.51c0-.41,0-.82,0-1.24a3.53,3.53,0,0,0-.1-1.19,2,2,0,0,0-1.79-1.37H217.39a2,2,0,0,0-1.95,1.63c-.07.93,0,2,0,3,0,2,0,3.9,0,5.72,0,.91,0,1.8,0,2.67a5.19,5.19,0,0,0,.06,1.21,2.06,2.06,0,0,0,.55,1,2,2,0,0,0,.94.52,4.82,4.82,0,0,0,1.09.06l2.17,0,6.53.08,1.78,0a4.25,4.25,0,0,1,.62,0,2.5,2.5,0,0,1-.62.06l-1.78,0-6.53.08-2.17,0a5,5,0,0,1-1.19-.07,2.36,2.36,0,0,1-1.14-.61,2.44,2.44,0,0,1-.68-1.16,5.45,5.45,0,0,1-.08-1.32c0-.87,0-1.76,0-2.67,0-1.82,0-3.74,0-5.72v-1.5a12.21,12.21,0,0,1,0-1.58,2.51,2.51,0,0,1,2.46-2l11.89,0a2.48,2.48,0,0,1,2.18,1.71,3.88,3.88,0,0,1,.12,1.33c0,.42,0,.83,0,1.24,0,1.62,0,3.13,0,4.51s0,2.62,0,3.73c0,.54,0,1.05,0,1.52a2.52,2.52,0,0,1-.31,1.29,2.28,2.28,0,0,1-1.43,1.08A1.45,1.45,0,0,1,229.11,126.49Z" transform="translate(-27.28 -33.18)"/><path class="cls-4" d="M229.11,256.27s.22,0,.6-.13a2.26,2.26,0,0,0,1.28-1.08c.39-.65.19-1.62.22-2.71s0-2.36,0-3.73,0-2.89,0-4.51c0-.41,0-.82,0-1.24a3.53,3.53,0,0,0-.1-1.19,2,2,0,0,0-1.79-1.37H217.39a2,2,0,0,0-1.95,1.63c-.07.92,0,2,0,3,0,2,0,3.89,0,5.72,0,.91,0,1.8,0,2.67a5.22,5.22,0,0,0,.06,1.21,2.06,2.06,0,0,0,.55,1,2.13,2.13,0,0,0,.94.52,4.82,4.82,0,0,0,1.09.06l2.17,0,6.53.08,1.78.05a4.25,4.25,0,0,1,.62,0,2.5,2.5,0,0,1-.62.06l-1.78,0-6.53.09H218a4.92,4.92,0,0,1-1.19-.06,2.36,2.36,0,0,1-1.14-.61,2.44,2.44,0,0,1-.68-1.16,5.45,5.45,0,0,1-.08-1.32c0-.87,0-1.76,0-2.67,0-1.83,0-3.74,0-5.72v-1.51a12.1,12.1,0,0,1,0-1.57,2.51,2.51,0,0,1,2.46-2l11.89,0a2.48,2.48,0,0,1,2.18,1.71,3.88,3.88,0,0,1,.12,1.33c0,.42,0,.83,0,1.24,0,1.62,0,3.13,0,4.51s0,2.62,0,3.73c0,.54,0,1.05,0,1.52a2.54,2.54,0,0,1-.31,1.29,2.32,2.32,0,0,1-1.43,1.08A1.45,1.45,0,0,1,229.11,256.27Z" transform="translate(-27.28 -33.18)"/><path class="cls-4" d="M202.39,307.46s0-.21,0-.61,0-1,0-1.79c0-1.6,0-3.91,0-6.89,0-6,0-14.65,0-25.32.05-21.39.26-50.93.56-83.56s.53-62.16.72-83.56c.07-10.68.12-19.33.16-25.33,0-3,0-5.29.06-6.88,0-.77,0-1.37,0-1.79s0-.61,0-.61,0,.21,0,.61,0,1,0,1.79c0,1.59,0,3.91,0,6.89,0,6,0,14.64,0,25.32-.05,21.39-.26,50.93-.56,83.57s-.54,62.15-.72,83.55c-.07,10.68-.12,19.32-.16,25.32,0,3,0,5.29-.06,6.89,0,.77,0,1.37,0,1.79S202.39,307.46,202.39,307.46Z" transform="translate(-27.28 -33.18)"/><path class="cls-4" d="M313.74,157.22c0,.14-15,.26-33.56.26s-33.56-.12-33.56-.26,15-.26,33.56-.26S313.74,157.08,313.74,157.22Z" transform="translate(-27.28 -33.18)"/><path class="cls-4" d="M355.69,164.62c0,.15-24.42.27-54.53.27s-54.54-.12-54.54-.27,24.42-.26,54.54-.26S355.69,164.48,355.69,164.62Z" transform="translate(-27.28 -33.18)"/><path class="cls-4" d="M313.74,244.33c0,.14-15,.26-33.56.26s-33.56-.12-33.56-.26,15-.26,33.56-.26S313.74,244.19,313.74,244.33Z" transform="translate(-27.28 -33.18)"/><path class="cls-4" d="M355.69,251.73c0,.15-24.42.26-54.53.26s-54.54-.11-54.54-.26,24.42-.26,54.54-.26S355.69,251.59,355.69,251.73Z" transform="translate(-27.28 -33.18)"/><path class="cls-4" d="M313.74,115.37c0,.14-15,.26-33.56.26s-33.56-.12-33.56-.26,15-.26,33.56-.26S313.74,115.22,313.74,115.37Z" transform="translate(-27.28 -33.18)"/><path class="cls-4" d="M355.69,122.77c0,.15-24.42.26-54.53.26s-54.54-.11-54.54-.26,24.42-.26,54.54-.26S355.69,122.63,355.69,122.77Z" transform="translate(-27.28 -33.18)"/><path class="cls-4" d="M313.74,199.9c0,.15-15,.26-33.56.26s-33.56-.11-33.56-.26,15-.26,33.56-.26S313.74,199.76,313.74,199.9Z" transform="translate(-27.28 -33.18)"/><path class="cls-4" d="M355.69,207.31c0,.14-24.42.26-54.53.26s-54.54-.12-54.54-.26,24.42-.26,54.54-.26S355.69,207.16,355.69,207.31Z" transform="translate(-27.28 -33.18)"/><path class="cls-4" d="M313.74,285.66c0,.14-15,.26-33.56.26s-33.56-.12-33.56-.26,15-.26,33.56-.26S313.74,285.51,313.74,285.66Z" transform="translate(-27.28 -33.18)"/><path class="cls-4" d="M355.69,293.06c0,.15-24.42.26-54.53.26s-54.54-.11-54.54-.26,24.42-.26,54.54-.26S355.69,292.92,355.69,293.06Z" transform="translate(-27.28 -33.18)"/><rect class="cls-2" x="349.4" y="43.4" width="13.21" height="13.21"/><rect class="cls-2" x="327.9" y="43.4" width="13.21" height="13.21"/><rect class="cls-2" x="306.39" y="43.4" width="13.21" height="13.21"/><polygon class="cls-4" points="79.83 77.98 85.45 85.31 90.25 77.98 79.83 77.98"/><path class="cls-4" d="M95,206.11c13-17.16,26.76-14.74,36.29-10.59a26.19,26.19,0,0,1,15.3,25c-.16,2.74-.75,5.62.37,8.13,1.79,4,7,5.18,10,8.4,4.13,4.4,3.22,11.37,1.82,17.25s-2.86,12.58.6,17.53c3.16,4.54,9.19,5.75,14.17,8.17a26,26,0,0,1,13.76,16.2,22.18,22.18,0,0,1-4.71,20.47c-4.84,5.27-12.1,7.6-19.17,8.65a70.64,70.64,0,0,1-80.85-73.47" transform="translate(-27.28 -33.18)"/><path class="cls-9" d="M131.93,196.26a33.18,33.18,0,0,0-4.63.26,61.76,61.76,0,0,0-10.76,3.11c-4.15,1.46-8.16,2.27-11.08,2.08a13.81,13.81,0,0,1-3.39-.56,4.29,4.29,0,0,1-1.18-.47,22,22,0,0,0,4.58.66,32.74,32.74,0,0,0,10.91-2.2c4.13-1.45,8-2.7,10.87-3a18.19,18.19,0,0,1,3.44-.09A4.43,4.43,0,0,1,131.93,196.26Z" transform="translate(-27.28 -33.18)"/><path class="cls-10" d="M161.89,332.75c.5,1.49,10.87,50.49,10.87,50.49l78.89,30.34-4.44,11.5-67.64-5.94h0c-39.48-5.89-41.67-25.27-39.29-46.92l4.09-37.11Z" transform="translate(-27.28 -33.18)"/><path class="cls-6" d="M48.5,306.32C56.63,294,69,286.92,80.27,283l41.5,3a31.68,31.68,0,0,1,25.28,9.33l3.86,102.84,9.53,27H61.71L48.5,306.32" transform="translate(-27.28 -33.18)"/><path class="cls-5" d="M148.57,337.49s-.09,0-.24-.16l-.67-.5c-.3-.21-.63-.52-1.09-.81L145,335c-.62-.32-1.3-.7-2.05-1.07a27.4,27.4,0,0,0-9.09-2.39,27.1,27.1,0,0,0-8.06.5,24.49,24.49,0,0,0-8.51,3.58,17.87,17.87,0,0,0-6.7,7.53,10.8,10.8,0,0,0-.91,5.22,9.78,9.78,0,0,0,2,5,7,7,0,0,0,4.56,2.71,4.41,4.41,0,0,0,4.49-1.93,5.79,5.79,0,0,0,.08-4.9,8.72,8.72,0,0,0-1.18-2.19,11.89,11.89,0,0,0-1.66-1.81,17.93,17.93,0,0,0-8.19-4.09,25.1,25.1,0,0,0-8-.45,53.52,53.52,0,0,0-11.46,2.69l-3.05,1-.79.26a1.07,1.07,0,0,1-.28.08l.26-.13.78-.31c.68-.26,1.7-.65,3-1.12a51.41,51.41,0,0,1,11.49-2.87,25.34,25.34,0,0,1,8.19.4,18.3,18.3,0,0,1,8.41,4.16,10.78,10.78,0,0,1,.91.88,9.8,9.8,0,0,1,2.08,3.29,6.32,6.32,0,0,1-.11,5.34,4.26,4.26,0,0,1-2.15,1.84,5.6,5.6,0,0,1-2.84.34,7.46,7.46,0,0,1-4.91-2.89,10.26,10.26,0,0,1-2.07-5.33,11.11,11.11,0,0,1,1-5.46,18.32,18.32,0,0,1,6.9-7.73,24.77,24.77,0,0,1,8.69-3.6,27.17,27.17,0,0,1,8.18-.45,25.94,25.94,0,0,1,6.6,1.47,27.56,27.56,0,0,1,2.56,1.06c.76.4,1.44.79,2.05,1.13l1.54,1c.45.3.78.62,1.07.85l.63.54Z" transform="translate(-27.28 -33.18)"/><polygon class="cls-6" points="119.77 262.09 144.26 306.14 117.09 314.49 119.77 262.09"/><path class="cls-4" d="M150.34,398.44a7,7,0,0,1-.08-.77c0-.56-.07-1.29-.13-2.21-.09-2-.21-4.74-.37-8.13-.28-6.87-.63-16.36-.94-26.84s-.5-20-.56-26.86c0-3.43,0-6.21,0-8.14,0-.92,0-1.65,0-2.21a4.55,4.55,0,0,1,.05-.77,3.81,3.81,0,0,1,.06.77l.06,2.21c0,2,.1,4.74.18,8.14.18,6.92.43,16.38.71,26.84s.59,19.93.79,26.84c.08,3.4.15,6.16.2,8.14,0,.92,0,1.66,0,2.21A3.92,3.92,0,0,1,150.34,398.44Z" transform="translate(-27.28 -33.18)"/><path class="cls-5" d="M154.28,308.68a2.8,2.8,0,0,1-.56.39A15.07,15.07,0,0,1,152,310a18.22,18.22,0,0,1-17.26-1.45,11.4,11.4,0,0,1-2.39-2,5.94,5.94,0,0,1-1.48-3,4.06,4.06,0,0,1,.89-3.34,3.58,3.58,0,0,1,3.39-1,4.38,4.38,0,0,1,2.93,2,5,5,0,0,1,.53,3.4,6.69,6.69,0,0,1-1.39,3,8,8,0,0,1-2.45,2,15.15,15.15,0,0,1-5.55,1.56,24.77,24.77,0,0,1-5,.06,24.51,24.51,0,0,1-7-1.69,18.53,18.53,0,0,1-1.78-.82,4.11,4.11,0,0,1-.59-.35,3.31,3.31,0,0,1,.63.25c.41.18,1,.44,1.81.73a25.53,25.53,0,0,0,7,1.51,25,25,0,0,0,4.92-.12,14.85,14.85,0,0,0,5.37-1.55,7.53,7.53,0,0,0,2.3-1.88,6.32,6.32,0,0,0,1.27-2.78,4.5,4.5,0,0,0-.48-3.05,3.86,3.86,0,0,0-2.58-1.76,3.06,3.06,0,0,0-2.91.82,3.51,3.51,0,0,0-.76,2.91,5.38,5.38,0,0,0,1.34,2.72,10.92,10.92,0,0,0,2.29,2,17.61,17.61,0,0,0,9.94,3,18.2,18.2,0,0,0,7-1.34C153.47,309.16,154.25,308.63,154.28,308.68Z" transform="translate(-27.28 -33.18)"/><path class="cls-5" d="M149.06,397.57l-.28-.19-.8-.58a27.26,27.26,0,0,0-3.27-1.94,29.08,29.08,0,0,0-13.5-3,40.94,40.94,0,0,0-19.61,5.88,28.59,28.59,0,0,0-4.84,3.46,16.48,16.48,0,0,0-3.82,4.81,9.48,9.48,0,0,0-.91,6.13,5.49,5.49,0,0,0,1.54,2.72,3,3,0,0,0,2.88.7,4.09,4.09,0,0,0,2.31-2,6.9,6.9,0,0,0,.83-3.06,10.7,10.7,0,0,0-1.9-6,14.74,14.74,0,0,0-4.43-4.23,17.16,17.16,0,0,0-5.49-2.15,31.7,31.7,0,0,0-11-.1,65.81,65.81,0,0,0-9.43,2.05,68.34,68.34,0,0,0-12.91,5.35c-1.45.8-2.55,1.45-3.3,1.9l-.84.52a2.41,2.41,0,0,1-.3.16s.08-.08.27-.21l.82-.56c.72-.48,1.82-1.16,3.26-2a65,65,0,0,1,12.89-5.52,66.2,66.2,0,0,1,9.48-2.13,32.09,32.09,0,0,1,11.14.06,17.38,17.38,0,0,1,5.65,2.2,14.92,14.92,0,0,1,4.59,4.37,11.08,11.08,0,0,1,2,6.24,7.38,7.38,0,0,1-.9,3.3,4.57,4.57,0,0,1-2.62,2.29,3.52,3.52,0,0,1-3.37-.82,6,6,0,0,1-1.69-3,10,10,0,0,1,1-6.48,17.13,17.13,0,0,1,3.94-4.95,29.31,29.31,0,0,1,4.94-3.51c6.82-3.92,13.89-5.83,19.85-5.83a28.94,28.94,0,0,1,13.6,3.16A19.31,19.31,0,0,1,149.06,397.57Z" transform="translate(-27.28 -33.18)"/><path class="cls-10" d="M78.61,317.7c-3-15.37-24.75-15.94-28.56-.75-.06.23-.12.47-.17.71-5.61,23.93,13.34,94.64,18.43,98.72s10.14,8.7,18.84,5.09c5.09-2.11,57.94-48.82,57.94-48.82s12.23,11.71,16.3,10.69,11.87-13,11.87-13,7.55,11.33,8.5,11.51a2.85,2.85,0,0,0,3.05-4.08c-1-1.52-10.64-22.6-10.64-22.6s7.59-.82,6.06-3.37c0,0-.19-2.34-5.32-1.88s-5.13-5.43-14.63-4.83-29.27,3-57,24.29l-12.82,9Z" transform="translate(-27.28 -33.18)"/><path class="cls-11" d="M103.25,369.35a3,3,0,0,1,.32-.26l1-.73,3.74-2.82a148.79,148.79,0,0,1,14.86-9.36,97.63,97.63,0,0,1,25-9.65,78.59,78.59,0,0,1,7.84-1.32c1.36-.15,2.73-.27,4.13-.37a18.61,18.61,0,0,1,4.27.19,11.4,11.4,0,0,1,4.09,1.59c1.27.77,2.34,1.85,3.62,2.5a4.89,4.89,0,0,0,2.06.54c.7,0,1.48-.1,2.26-.07a7.27,7.27,0,0,1,2.33.4,2.48,2.48,0,0,1,1.72,1.76l0-.1a1.47,1.47,0,0,1,.2,1.08,1.72,1.72,0,0,1-.63.89,6.12,6.12,0,0,1-1.82.92,20.31,20.31,0,0,1-4,.85l.21-.35q3.27,7.09,6.78,14.67c1.19,2.5,2.37,5.07,3.66,7.56a4.28,4.28,0,0,1,.49,1,3.18,3.18,0,0,1-1.11,3.14,2.87,2.87,0,0,1-2.19.67l-.29,0a.8.8,0,0,1-.21-.08l-.14-.1a3.28,3.28,0,0,1-.42-.41c-.25-.27-.49-.55-.71-.83-2.61-3.35-4.92-6.81-7.22-10.21h.43a87.19,87.19,0,0,1-5.88,7.94,32,32,0,0,1-3.37,3.51c-.31.26-.64.51-.95.76s-.69.45-1.06.64a4.17,4.17,0,0,1-1.23.36,4.58,4.58,0,0,1-1.24-.16,16.42,16.42,0,0,1-4.26-2.1c-1.31-.84-2.55-1.76-3.76-2.7-2.4-1.89-4.65-3.86-6.79-5.88h.32c-16.76,14.75-31.11,27.12-41.37,35.7-5.13,4.29-9.24,7.63-12.12,9.82-1.44,1.1-2.57,1.92-3.36,2.43a6.61,6.61,0,0,1-1.25.69s.44-.21,1.21-.76,1.89-1.36,3.31-2.48c2.84-2.23,6.92-5.6,12-9.92,10.21-8.64,24.52-21.06,41.25-35.84l.16-.14.16.15c2.12,2,4.38,4,6.77,5.83,1.19.93,2.43,1.84,3.72,2.67a15.9,15.9,0,0,0,4.11,2c1.5.56,2.84-.51,4-1.49a33.92,33.92,0,0,0,3.31-3.46,86.07,86.07,0,0,0,5.84-7.89l.21-.33.22.33c2.29,3.38,4.62,6.86,7.19,10.16q.34.42.69.81a3.91,3.91,0,0,0,.36.35l.08.06h0s0,0,0,.1,0,.15,0-.09h0l.25,0a2.37,2.37,0,0,0,1.81-.55,2.56,2.56,0,0,0,.5-3.51c-1.33-2.54-2.49-5.09-3.67-7.6l-6.78-14.68-.14-.31.34-.05a20.5,20.5,0,0,0,3.89-.82,5.56,5.56,0,0,0,1.67-.83,1.3,1.3,0,0,0,.46-.63,1,1,0,0,0-.14-.71l0,0,0-.07a2.08,2.08,0,0,0-1.41-1.35,6.75,6.75,0,0,0-2.16-.36c-.75,0-1.47.08-2.27.06a5.35,5.35,0,0,1-2.26-.6c-1.38-.71-2.43-1.78-3.65-2.52a10.62,10.62,0,0,0-3.92-1.53c-2.77-.5-5.58-.08-8.27.16s-5.29.76-7.8,1.28a99,99,0,0,0-25,9.52,156.25,156.25,0,0,0-14.91,9.23l-3.78,2.74-1,.7C103.37,369.28,103.25,369.35,103.25,369.35Z" transform="translate(-27.28 -33.18)"/><path class="cls-11" d="M85.68,395.6s-.11-.26-.21-.74a14.92,14.92,0,0,1-.25-2.09,21.35,21.35,0,0,1,3.67-13.18,15.12,15.12,0,0,1,1.3-1.65c.34-.37.54-.56.56-.53s-.63.89-1.55,2.38a24.22,24.22,0,0,0-3.62,13C85.6,394.51,85.77,395.59,85.68,395.6Z" transform="translate(-27.28 -33.18)"/><path class="cls-6" d="M63.79,291.11c-.49.33-18.09,5.59-20.86,23.64s-1.1,49.45-1.1,49.45l47.74-3.28L75.88,297.47Z" transform="translate(-27.28 -33.18)"/><path class="cls-11" d="M165.27,380.85c-.08,0,0-.64,0-1.64a8.54,8.54,0,0,0-3.49-6.62c-.8-.59-1.39-.83-1.36-.91a3.26,3.26,0,0,1,1.57.6,7.75,7.75,0,0,1,2.76,3,7.62,7.62,0,0,1,.89,4A3.25,3.25,0,0,1,165.27,380.85Z" transform="translate(-27.28 -33.18)"/><path class="cls-11" d="M169.66,375.5a15,15,0,0,0-1.62-4.35,14.85,14.85,0,0,0-3.26-3.29c0-.06.55.1,1.29.57a8.28,8.28,0,0,1,3.61,5.65A2.82,2.82,0,0,1,169.66,375.5Z" transform="translate(-27.28 -33.18)"/><path class="cls-11" d="M169.66,364.1c0-.05.45.15,1,.64a7.09,7.09,0,0,1,1.66,2.33,7.24,7.24,0,0,1,.61,2.79c0,.74-.14,1.17-.2,1.17a15.81,15.81,0,0,0-.89-3.75A16.4,16.4,0,0,0,169.66,364.1Z" transform="translate(-27.28 -33.18)"/><path class="cls-5" d="M83.75,331a.67.67,0,0,1-.25,0l-.72-.08c-.63-.09-1.57-.15-2.78-.19a26.72,26.72,0,0,0-10,1.86,25.23,25.23,0,0,0-11.67,9.25,13.67,13.67,0,0,0-2.56,8.3,9.22,9.22,0,0,0,1.39,4.37,6.83,6.83,0,0,0,3.63,2.88,6.5,6.5,0,0,0,4.6-.22,5.27,5.27,0,0,0,2.8-3.39,8.46,8.46,0,0,0-.18-4.41,12.7,12.7,0,0,0-1.9-3.85A19.15,19.15,0,0,0,53.47,338a19.36,19.36,0,0,0-10,1.35A21,21,0,0,0,41,340.59l-.62.38-.22.11a14.27,14.27,0,0,1,3.25-1.92,19.16,19.16,0,0,1,10.12-1.52,19.41,19.41,0,0,1,13,7.55,12.78,12.78,0,0,1,2,4,8.88,8.88,0,0,1,.19,4.67,5.75,5.75,0,0,1-3.07,3.73,6.9,6.9,0,0,1-5,.24,7.3,7.3,0,0,1-3.91-3.09,9.7,9.7,0,0,1-1.46-4.62,14.16,14.16,0,0,1,2.67-8.6,25.54,25.54,0,0,1,11.94-9.33A25.83,25.83,0,0,1,80,330.49,19,19,0,0,1,83.75,331Z" transform="translate(-27.28 -33.18)"/><path class="cls-5" d="M82.12,305.08a7.18,7.18,0,0,1-1.21.56,13.26,13.26,0,0,1-1.47.53,20.06,20.06,0,0,1-2,.55,21.75,21.75,0,0,1-2.47.47,27.66,27.66,0,0,1-2.88.27,31.81,31.81,0,0,1-6.6-.45,32.57,32.57,0,0,1-6.34-1.87,27.43,27.43,0,0,1-2.6-1.26,20.2,20.2,0,0,1-2.16-1.3,19,19,0,0,1-1.68-1.22,11.41,11.41,0,0,1-1.19-1,5.83,5.83,0,0,1-.94-.94c.07-.08,1.44,1.24,4,2.86a22.17,22.17,0,0,0,2.16,1.23c.78.43,1.66.79,2.58,1.19A31.33,31.33,0,0,0,72.07,307c1-.06,2-.08,2.84-.22a22.4,22.4,0,0,0,2.45-.4C80.33,305.74,82.08,305,82.12,305.08Z" transform="translate(-27.28 -33.18)"/><path class="cls-4" d="M86.06,335.67a2.4,2.4,0,0,1,.11.47c.06.36.14.82.23,1.4.2,1.27.47,3,.8,5.23.65,4.52,1.56,10.81,2.61,18.11l0,.27-.26,0L78.44,362l-25.89,1.7-7.84.45-2.14.1a3.45,3.45,0,0,1-.74,0,3.75,3.75,0,0,1,.74-.1l2.12-.2,7.84-.62,25.87-1.85,11.15-.76-.23.29c-1-7.32-1.82-13.61-2.42-18.15-.28-2.2-.5-4-.66-5.25-.07-.58-.12-1-.16-1.4A1.66,1.66,0,0,1,86.06,335.67Z" transform="translate(-27.28 -33.18)"/><g class="cls-12"><path d="M62.91,290.61c-.47,1.69.86,3.27,1.73,4.79,1.68,2.92,1.77,6.46,1.92,9.82a68.39,68.39,0,0,0,2.83,18.24c1.92,5.87,5.22,11.41,10.1,15.2s11.43,5.63,17.4,4.07,11-6.84,11.51-13-3.2-11.63-5.32-17.36c-1.64-4.43-2.37-9.13-3.31-13.75s-2.14-9.29-4.59-13.32-6.34-7.4-11-8.25-9.94,1.35-11.82,5.68" transform="translate(-27.28 -33.18)"/></g><path class="cls-10" d="M86,209.87v5.32l-.35,79.61c0,9.24,7.88,16.63,17.77,16.6h0c10,0,18.25-7.62,18.44-17,.21-9.8.6-20.11.6-20.11S135.1,272.46,138,256c1.45-8.17,1.28-21.61.78-32.6a17.39,17.39,0,0,0-18.9-16.55Z" transform="translate(-27.28 -33.18)"/><path class="cls-4" d="M134.92,233.46a2.11,2.11,0,0,1-2.08,2.1,2,2,0,0,1-2.14-1.95,2.11,2.11,0,0,1,2.07-2.09A2,2,0,0,1,134.92,233.46Z" transform="translate(-27.28 -33.18)"/><path class="cls-4" d="M135.75,230.38c-.27.27-1.84-.94-4.12-1s-4,1.07-4.2.79c-.12-.12.16-.62.89-1.13a5.79,5.79,0,0,1,3.37-1,5.61,5.61,0,0,1,3.28,1.13C135.65,229.75,135.88,230.26,135.75,230.38Z" transform="translate(-27.28 -33.18)"/><path class="cls-4" d="M113.39,233.08a2.12,2.12,0,0,1-2.08,2.1,2,2,0,0,1-2.14-2,2.11,2.11,0,0,1,2.07-2.09A2,2,0,0,1,113.39,233.08Z" transform="translate(-27.28 -33.18)"/><path class="cls-4" d="M113.4,230.41c-.27.27-1.85-.95-4.12-1s-4,1.07-4.2.79c-.12-.13.16-.62.89-1.13a5.79,5.79,0,0,1,3.37-1,5.68,5.68,0,0,1,3.28,1.12C113.3,229.78,113.53,230.28,113.4,230.41Z" transform="translate(-27.28 -33.18)"/><path class="cls-4" d="M121.35,247.41a14.89,14.89,0,0,1,3.7-.6c.59-.05,1.14-.16,1.24-.55a3,3,0,0,0-.35-1.73c-.53-1.41-1.07-2.9-1.64-4.45-2.27-6.33-3.91-11.54-3.65-11.63s2.3,5,4.58,11.31l1.56,4.48a3.34,3.34,0,0,1,.26,2.28,1.43,1.43,0,0,1-1,.83,3.7,3.7,0,0,1-1,.12A15,15,0,0,1,121.35,247.41Z" transform="translate(-27.28 -33.18)"/><path class="cls-11" d="M122.44,274.33a41.9,41.9,0,0,1-22-6.27s5.15,11.41,21.66,10.16Z" transform="translate(-27.28 -33.18)"/><path class="cls-11" d="M120.29,252.87a4.08,4.08,0,0,0-3.64-1.59,3.75,3.75,0,0,0-2.61,1.34,2.38,2.38,0,0,0-.23,2.71,2.76,2.76,0,0,0,3,.8,8.57,8.57,0,0,0,2.94-1.68,2.59,2.59,0,0,0,.66-.66.77.77,0,0,0,0-.84" transform="translate(-27.28 -33.18)"/><path class="cls-4" d="M114.63,248.86c.37,0,.34,2.45,2.42,4.24s4.71,1.57,4.72,1.91c0,.16-.59.47-1.7.48a6.15,6.15,0,0,1-3.95-1.45,5.32,5.32,0,0,1-1.86-3.56C114.18,249.45,114.47,248.84,114.63,248.86Z" transform="translate(-27.28 -33.18)"/><path class="cls-4" d="M114.15,221.51c-.24.61-2.5.28-5.17.55s-4.85,1-5.19.41c-.15-.27.23-.85,1.11-1.43a9,9,0,0,1,7.89-.73C113.76,220.72,114.25,221.22,114.15,221.51Z" transform="translate(-27.28 -33.18)"/><path class="cls-4" d="M135,223.79c-.41.5-2-.06-3.85-.12s-3.48.29-3.84-.26c-.15-.26.11-.78.81-1.25a5.25,5.25,0,0,1,3.15-.79,5.31,5.31,0,0,1,3,1.09C135,223,135.21,223.54,135,223.79Z" transform="translate(-27.28 -33.18)"/><path class="cls-4" d="M106.62,204.45c4.46,5.81,0,14.14-5.05,19.47s-11.14,11.52-9.69,18.69c1.69,8.32,13.14,13.55,11.53,21.88-.59,3-3,5.65-2.94,8.75,0,5.59,7.3,8.24,9.43,13.41,2.92,7.08-4.85,14.25-4.9,21.91,0,4.35,2.48,8.39,2.66,12.73.35,8.91-10.12,15.53-18.78,13.43s-14.67-10.48-16.63-19.18-.67-17.75.64-26.57c-.83,3.76-6.53,4.52-9.34,1.89s-3.19-7-2.6-10.79c1.48-9.54,7.66-17.67,10.55-26.89,2.53-8.05,2.46-16.65,3.52-25s3.56-17.12,9.9-22.7,17.38-6.37,22.61.26" transform="translate(-27.28 -33.18)"/><path class="cls-9" d="M84,331.54a3.71,3.71,0,0,1,.21-.33l.63-.94a21.3,21.3,0,0,0,1.92-3.88,21.93,21.93,0,0,0,1.32-6.69,20.35,20.35,0,0,0-1.62-8.83c-1.31-3.11-3.62-6-6.06-9.16a47.45,47.45,0,0,1-3.53-5.08,20.22,20.22,0,0,1-2.34-6.16,12.1,12.1,0,0,1,.56-6.89,9.78,9.78,0,0,1,2-3A24.25,24.25,0,0,1,80,278.27c2-1.41,4.05-2.85,5.13-5.07a10.65,10.65,0,0,0,.46-7.29c-1.2-5-4.68-8.9-6.91-13.25a16.72,16.72,0,0,1-2.07-6.91,15.13,15.13,0,0,1,1.29-6.8,29.64,29.64,0,0,1,7.75-10c3-2.67,5.9-4.94,8.31-7.3a26.27,26.27,0,0,0,5.48-7.17,17.49,17.49,0,0,0,1.88-6.53,12.18,12.18,0,0,0-.43-4.29c-.28-1-.51-1.42-.48-1.43a7.53,7.53,0,0,1,.58,1.4,11.71,11.71,0,0,1,.53,4.33,17.07,17.07,0,0,1-1.82,6.65,26.42,26.42,0,0,1-5.48,7.3c-2.41,2.4-5.34,4.69-8.28,7.36a29.52,29.52,0,0,0-7.6,9.92,14.8,14.8,0,0,0-1.24,6.58,16.42,16.42,0,0,0,2,6.7c1.12,2.15,2.51,4.19,3.83,6.34a24.66,24.66,0,0,1,3.14,7,11.15,11.15,0,0,1-.5,7.64c-1.17,2.38-3.36,3.85-5.3,5.25a23.88,23.88,0,0,0-2.77,2.26,9.44,9.44,0,0,0-1.94,2.84,11.67,11.67,0,0,0-.54,6.6,19.74,19.74,0,0,0,2.27,6,45.31,45.31,0,0,0,3.48,5c2.41,3.14,4.73,6.11,6,9.28a20.47,20.47,0,0,1,1.57,9A21.43,21.43,0,0,1,87,326.46a21.2,21.2,0,0,1-2,3.87c-.29.41-.53.71-.68.91A1.46,1.46,0,0,1,84,331.54Z" transform="translate(-27.28 -33.18)"/><path class="cls-4" d="M206.67,350.4l-37.9,66.18-53.66,1.86v5.91H271.89l42.67-69.9a4,4,0,0,0-3.39-6H210.11A4,4,0,0,0,206.67,350.4Z" transform="translate(-27.28 -33.18)"/><path class="cls-2" d="M254.14,385.73c-2.38,3.71-6,5.59-8.18,4.22s-2-5.5.43-9.2,6-5.59,8.18-4.21S256.52,382,254.14,385.73Z" transform="translate(-27.28 -33.18)"/><path class="cls-4" d="M443.23,394.5A2.89,2.89,0,0,0,443,394l-.69-1.48a37.53,37.53,0,0,1-2-5.91c-1.34-5.26-1.81-13.3.18-22.84a121.4,121.4,0,0,1,4.23-15.34c1.8-5.45,3.88-11.22,5.58-17.47A67.51,67.51,0,0,0,453,310.86c-.25-7.1-2.36-14.19-4.67-21.25s-4.69-14-5.41-20.93a31.91,31.91,0,0,1,3.84-19.33c3.06-5.64,6.91-10.46,9.79-15.46A53.7,53.7,0,0,0,462.46,219a55.23,55.23,0,0,0,.37-23,42.46,42.46,0,0,0-2.4-8.13,4.79,4.79,0,0,0,.14.54l.49,1.56a60.11,60.11,0,0,1,1.49,6.08,55.88,55.88,0,0,1-.6,22.85,53.75,53.75,0,0,1-5.9,14.68c-2.88,4.93-6.75,9.74-9.87,15.44a32.55,32.55,0,0,0-3.95,19.72c.72,7.07,3.12,14,5.42,21.09s4.39,14.07,4.66,21.05a67.51,67.51,0,0,1-2.69,19.88c-1.67,6.21-3.73,12-5.5,17.45A121.27,121.27,0,0,0,440,363.65c-1.94,9.62-1.39,17.73.06,23a33.64,33.64,0,0,0,2.18,5.9L443,394A3.44,3.44,0,0,0,443.23,394.5Z" transform="translate(-27.28 -33.18)"/><path class="cls-6" d="M452.66,238.82s5.85-18.71-4.65-29.67a.65.65,0,0,0-1.11.32C446.34,212.56,445.64,222,452.66,238.82Z" transform="translate(-27.28 -33.18)"/><path class="cls-4" d="M449.15,215.39a17.14,17.14,0,0,0,.4,3.45c.38,2.38.83,5.17,1.33,8.25s.93,5.88,1.31,8.26a18.35,18.35,0,0,0,.62,3.41,13.9,13.9,0,0,0-.1-3.47c-.2-2.14-.57-5.08-1.11-8.31s-1.09-6.14-1.54-8.24A15.45,15.45,0,0,0,449.15,215.39Z" transform="translate(-27.28 -33.18)"/><path class="cls-6" d="M445.78,283s-3.58-19.28-18-24a.64.64,0,0,0-.83.8C427.92,262.71,431.7,271.36,445.78,283Z" transform="translate(-27.28 -33.18)"/><path class="cls-4" d="M431.72,263.89a17.55,17.55,0,0,0,2,2.87l5,6.67,5,6.68a19.1,19.1,0,0,0,2.15,2.73,14.64,14.64,0,0,0-1.72-3c-1.17-1.8-2.88-4.22-4.86-6.83s-3.83-4.91-5.22-6.55A15.22,15.22,0,0,0,431.72,263.89Z" transform="translate(-27.28 -33.18)"/><path class="cls-6" d="M449.68,331.33s2.17-19.49-10.23-28.24a.65.65,0,0,0-1,.53C438.46,306.76,439.57,316.13,449.68,331.33Z" transform="translate(-27.28 -33.18)"/><path class="cls-4" d="M441.76,309a17.3,17.3,0,0,0,1.05,3.32l2.88,7.85,2.86,7.85a19.34,19.34,0,0,0,1.26,3.23,14,14,0,0,0-.76-3.39c-.6-2.06-1.53-4.88-2.67-8s-2.24-5.81-3.09-7.78A15.7,15.7,0,0,0,441.76,309Z" transform="translate(-27.28 -33.18)"/><path class="cls-6" d="M438.82,380s1.48-19.55-11.22-27.86a.65.65,0,0,0-1,.57C426.74,355.82,428.18,365.15,438.82,380Z" transform="translate(-27.28 -33.18)"/><path class="cls-4" d="M430.12,357.94a16.08,16.08,0,0,0,1.16,3.28l3.16,7.74,3.15,7.74a18.46,18.46,0,0,0,1.37,3.19,14.61,14.61,0,0,0-.89-3.37c-.67-2-1.7-4.82-2.95-7.84s-2.45-5.73-3.36-7.67A15.9,15.9,0,0,0,430.12,357.94Z" transform="translate(-27.28 -33.18)"/><path class="cls-6" d="M461.07,222.38s17.38-9.08,17.72-24.25a.65.65,0,0,0-1-.56C475.19,199.36,468,205.51,461.07,222.38Z" transform="translate(-27.28 -33.18)"/><path class="cls-4" d="M475.18,203.34a17.4,17.4,0,0,0-2.16,2.72c-1.42,1.95-3.07,4.24-4.9,6.78l-4.92,6.75a18.71,18.71,0,0,0-2,2.86,14.86,14.86,0,0,0,2.39-2.53c1.37-1.65,3.19-4,5.1-6.65s3.57-5.11,4.73-6.92A15.09,15.09,0,0,0,475.18,203.34Z" transform="translate(-27.28 -33.18)"/><path class="cls-6" d="M442.4,262.57s17.91-8,19.17-23.12a.65.65,0,0,0-1-.63C457.9,240.45,450.38,246.16,442.4,262.57Z" transform="translate(-27.28 -33.18)"/><path class="cls-4" d="M457.65,244.43a16.88,16.88,0,0,0-2.33,2.58l-5.3,6.47-5.32,6.44a18.33,18.33,0,0,0-2.15,2.73,14.66,14.66,0,0,0,2.54-2.38c1.47-1.56,3.43-3.79,5.5-6.33s3.87-4.88,5.14-6.61A15.64,15.64,0,0,0,457.65,244.43Z" transform="translate(-27.28 -33.18)"/><path class="cls-6" d="M452.7,307.41s12.29-15.28,6.53-29.32a.65.65,0,0,0-1.15-.11C456.43,280.65,452.33,289.16,452.7,307.41Z" transform="translate(-27.28 -33.18)"/><path class="cls-4" d="M458,284.31a17.81,17.81,0,0,0-.9,3.36l-1.77,8.17c-.67,3.05-1.28,5.81-1.8,8.16a19.62,19.62,0,0,0-.67,3.41,14.42,14.42,0,0,0,1.17-3.28c.6-2.06,1.33-4.94,2-8.14s1.22-6.11,1.56-8.22A15.83,15.83,0,0,0,458,284.31Z" transform="translate(-27.28 -33.18)"/><path class="cls-6" d="M440.53,360.17s17.76-8.31,18.77-23.45a.65.65,0,0,0-1-.61C455.65,337.79,448.23,343.62,440.53,360.17Z" transform="translate(-27.28 -33.18)"/><path class="cls-4" d="M455.47,341.77a16.83,16.83,0,0,0-2.29,2.62L448,350.94l-5.21,6.54a18.33,18.33,0,0,0-2.1,2.76,14.7,14.7,0,0,0,2.49-2.43c1.45-1.58,3.37-3.84,5.4-6.41s3.79-4.95,5-6.7A15.65,15.65,0,0,0,455.47,341.77Z" transform="translate(-27.28 -33.18)"/><path class="cls-4" d="M405.15,283.07a1.21,1.21,0,0,0,0,.43c0,.34,0,.75,0,1.25,0,1.18.12,2.77.21,4.76.23,4.18.54,10,.93,17v0c1.27,7.1,4.88,15,9.74,22.6,3.56,5.62,7.29,10.73,10.51,15.49a110.29,110.29,0,0,1,7.88,13,55.2,55.2,0,0,1,3.69,9.56c.31,1.17.54,2.08.68,2.71a4.61,4.61,0,0,0,.26.94,5.8,5.8,0,0,0-.12-1c-.08-.64-.27-1.56-.55-2.75a50.68,50.68,0,0,0-3.49-9.72,104,104,0,0,0-7.79-13.18c-3.2-4.79-6.91-9.91-10.45-15.51-4.83-7.59-8.43-15.34-9.74-22.32v0c-.49-7-.89-12.79-1.19-17-.16-2-.29-3.57-.38-4.75-.05-.5-.09-.91-.13-1.24A1.78,1.78,0,0,0,405.15,283.07Z" transform="translate(-27.28 -33.18)"/><path class="cls-6" d="M415.72,327.67s-7.52-18.11,1.94-30a.65.65,0,0,1,1.14.22C419.64,300.94,421.19,310.25,415.72,327.67Z" transform="translate(-27.28 -33.18)"/><path class="cls-4" d="M417.09,304a15.55,15.55,0,0,0-.59,3.42c-.27,2.13-.57,5.08-.8,8.34s-.34,6.23-.34,8.38a13.94,13.94,0,0,0,.21,3.47,19.25,19.25,0,0,0,.3-3.46c.17-2.4.35-5.22.56-8.34s.42-5.93.58-8.34A16.62,16.62,0,0,0,417.09,304Z" transform="translate(-27.28 -33.18)"/><g class="cls-13"><path d="M415.72,327.67s-7.52-18.11,1.94-30a.65.65,0,0,1,1.14.22C419.64,300.94,421.19,310.25,415.72,327.67Z" transform="translate(-27.28 -33.18)"/></g><path class="cls-6" d="M439,371.3s-6-18.65,4.36-29.71a.65.65,0,0,1,1.12.31C445.1,345,445.89,354.39,439,371.3Z" transform="translate(-27.28 -33.18)"/><path class="cls-4" d="M442.31,347.83a15.41,15.41,0,0,0-.87,3.37c-.44,2.1-1,5-1.47,8.25s-.85,6.18-1,8.32a14.73,14.73,0,0,0-.07,3.48,18.6,18.6,0,0,0,.59-3.43c.35-2.38.77-5.17,1.23-8.26s.9-5.89,1.26-8.27A17.68,17.68,0,0,0,442.31,347.83Z" transform="translate(-27.28 -33.18)"/><g class="cls-13"><path d="M439,371.3s-6-18.65,4.36-29.71a.65.65,0,0,1,1.12.31C445.1,345,445.89,354.39,439,371.3Z" transform="translate(-27.28 -33.18)"/></g><path class="cls-6" d="M406.14,305.54s-16.06-11.25-14.44-26.34a.65.65,0,0,1,1.08-.42C395.11,280.88,401.41,287.91,406.14,305.54Z" transform="translate(-27.28 -33.18)"/><g class="cls-13"><path d="M406.14,305.54s-16.06-11.25-14.44-26.34a.65.65,0,0,1,1.08-.42C395.11,280.88,401.41,287.91,406.14,305.54Z" transform="translate(-27.28 -33.18)"/></g><path class="cls-4" d="M394.61,284.84a15.43,15.43,0,0,0,1.33,3.21c.92,1.93,2.25,4.58,3.8,7.46s3.05,5.44,4.2,7.25a14.57,14.57,0,0,0,2.05,2.82,18.86,18.86,0,0,0-1.6-3.08l-4-7.34-4-7.35A16.54,16.54,0,0,0,394.61,284.84Z" transform="translate(-27.28 -33.18)"/><path class="cls-6" d="M432.55,352.81s-19.38-3-24.57-17.29a.65.65,0,0,1,.78-.85C411.78,335.53,420.54,339.06,432.55,352.81Z" transform="translate(-27.28 -33.18)"/><g class="cls-13"><path d="M432.55,352.81s-19.38-3-24.57-17.29a.65.65,0,0,1,.78-.85C411.78,335.53,420.54,339.06,432.55,352.81Z" transform="translate(-27.28 -33.18)"/></g><path class="cls-4" d="M413.07,339.3a16,16,0,0,0,2.62,2.3c1.67,1.33,4,3.12,6.7,5s5.13,3.54,7,4.66a14.93,14.93,0,0,0,3.08,1.63,18.46,18.46,0,0,0-2.79-2.07L422.81,346,416,341.18A16.85,16.85,0,0,0,413.07,339.3Z" transform="translate(-27.28 -33.18)"/><polygon class="cls-9" points="428.19 355.29 422.63 391.74 400.44 391.7 392.96 355.29 428.19 355.29"/><path class="cls-4" d="M423.5,402.53a.68.68,0,0,0,.18.13,4.45,4.45,0,0,0,.59.33,7.92,7.92,0,0,0,2.48.74,9,9,0,0,0,4.08-.38,8.46,8.46,0,0,0,4.39-3.19,6.2,6.2,0,0,0,1-3,3.34,3.34,0,0,0-1.51-3.14,3.6,3.6,0,0,0-3.72.31,5.37,5.37,0,0,0-2.12,3.35,14.08,14.08,0,0,0-.28,4.11,13.63,13.63,0,0,0,.9,4.21,9.32,9.32,0,0,0,2.57,3.67,7.21,7.21,0,0,0,4.27,1.79,7.89,7.89,0,0,0,4.45-1.29,13.58,13.58,0,0,0,3.31-3,7.3,7.3,0,0,0,1.68-4,4.65,4.65,0,0,0-1.58-3.87,3.63,3.63,0,0,0-3.93-.24,4.23,4.23,0,0,0-2.27,3,5.71,5.71,0,0,0,2.81,5.77,7.89,7.89,0,0,0,5.36.77,12.4,12.4,0,0,0,3.81-1.49,20.42,20.42,0,0,0,2.14-1.45,5,5,0,0,0,.69-.58,4.58,4.58,0,0,0-.76.48c-.49.32-1.21.81-2.18,1.34a12.51,12.51,0,0,1-3.76,1.37,7.55,7.55,0,0,1-5.08-.81,5.27,5.27,0,0,1-2.53-5.31,3.69,3.69,0,0,1,2-2.59,3.07,3.07,0,0,1,3.34.2,4.1,4.1,0,0,1,1.35,3.4,6.65,6.65,0,0,1-1.57,3.66,12.68,12.68,0,0,1-3.16,2.85,7.28,7.28,0,0,1-4.1,1.2,6.55,6.55,0,0,1-3.9-1.64,8.78,8.78,0,0,1-2.42-3.43,13.17,13.17,0,0,1-.87-4,13.88,13.88,0,0,1,.24-3.94,4.94,4.94,0,0,1,1.88-3,3.08,3.08,0,0,1,3.17-.31,2.85,2.85,0,0,1,1.29,2.68,5.83,5.83,0,0,1-.92,2.83,8.27,8.27,0,0,1-4.14,3.1,9.08,9.08,0,0,1-3.94.47A10.37,10.37,0,0,1,423.5,402.53Z" transform="translate(-27.28 -33.18)"/></svg>